<svg viewBox="0 0 512 512" xml:space="preserve" xmlns="http://www.w3.org/2000/svg"><g fill="#231F20"><circle cx="286.189" cy="104.552" r="32" style="fill:#000"/><path d="m304.728 434.319 10.398-100.456c.338-3.008-.246-6.04-1.532-8.73l-43.07-55.753 25.828-103.527c2.348-9.411-9.976-14.547-12.692-15.225l-31.049-7.746c-2.425-.605-4.9-.604-7.397-.093l-64.92 14.414c-9.555 2.357-16.22 9.661-18.956 20.625l-13.555 54.335c-2.13 8.538 3.113 17.267 11.65 19.397 8.54 2.13 17.268-3.113 19.398-11.652l13.095-52.49 34.922-7.779-18.619 80.094 73.575 79.215-8.874 91.87c-.87 8.028 4.817 16.212 14.253 16.975 9.435.763 16.577-6.595 17.545-13.474z" style="fill:#000"/><path d="m302.452 165.685-10.08 40.48 25.696 29.989 45.032-.353c8.838-.07 15.98-7.214 15.91-16.053 0-4.384-1.13-7.92-3.96-10.748-2.898-2.9-7.566-5.162-12.091-5.162l-31.877.176z" style="fill:#000;fill-opacity:1"/><path style="fill:#000;fill-opacity:1;stroke-width:9.06368;stroke-linecap:square;paint-order:markers stroke fill" d="M361.94 169.695c-2.531 0-4.568 2.068-4.568 4.635v23.418h9.138V174.33c0-2.567-2.039-4.635-4.57-4.635zm-4.568 72.754v200.817c0 2.567 2.037 4.634 4.568 4.634 2.531 0 4.57-2.067 4.57-4.634V242.449Z"/><path d="m183.167 353.352-37.997 65.087c-1.709 4.04-.95 8.956.62 12.743 1.572 3.788 3.957 6.45 8.088 8.118 4.172 1.76 9.187 1.721 13.027.018 3.656-1.622 8.26-8.26 9.878-12.259l38.485-67.93 24.774-56.8-33.847-35.344z" style="fill:#000;fill-opacity:1"/></g></svg>