<svg xmlns="http://www.w3.org/2000/svg" xml:space="preserve" viewBox="0 0 512 512"><path d="M236 48c-70 0-127.8 51.7-127.8 122.8l.3 4.8C66.2 181.2 32 220.1 32 264.5c0 47 37.9 88.5 84.6 88.5l15.134-.133-13.46 18.748a8 8 0 0 0 1.831 11.164 8 8 0 0 0 11.165-1.832l20.285-28.252 100.986-.882-14.219 19.802a8 8 0 0 0 1.832 11.164 8 8 0 0 0 11.164-1.832l21.043-29.308 100.987-.883-14.979 20.86a8 8 0 0 0 1.834 11.163 8 8 0 0 0 11.164-1.832l22.145-30.843C442.759 340.713 480.1 296.078 480.1 244c-.1-58.6-47.4-100.8-105.7-100.8l-13.3-.1C349.3 89.6 306 48 236 48zm0 16c29.3 0 55 8.3 74.3 23.9 17.7 14.4 29.9 34.7 35.2 58.7l2.9 13.4c11.5-.7 26-.7 26-.7 24.5 0 47.1 8.6 63.7 24.1 16.7 15.6 25.8 37.1 25.8 60.7.1 44.6-33.6 84.5-76.7 91.7 0 0-8.9 1.2-20.2 1.2H116.6c-18 0-35.1-7.9-48.2-21.8-13-13.7-20.4-32.3-20.4-50.9 0-17.5 6.6-34.7 18.5-48.4 11.8-13.5 27.4-22.2 44.1-24.4l14.8-2-1-14.9-.3-4.3c.1-29.3 11.7-56.3 32.6-75.9C177.7 74.8 205.8 64 236 64z"/><path d="M184.297 384.771a8 8 0 0 0-5.201 3.229l-22.336 31.11a8 8 0 0 0 1.834 11.163 8 8 0 0 0 11.164-1.832l22.334-31.109a8 8 0 0 0-1.832-11.164 8 8 0 0 0-5.963-1.397zM304.346 384.771a8 8 0 0 0-5.203 3.229l-22.334 31.11a8 8 0 0 0 1.834 11.163 8 8 0 0 0 11.164-1.832l22.334-31.109a8 8 0 0 0-1.832-11.164 8 8 0 0 0-5.963-1.397z" style="color:#000;fill:#000;stroke-linecap:round;-inkscape-stroke:none"/></svg>