<svg viewBox="0 0 512 512" xml:space="preserve" xmlns="http://www.w3.org/2000/svg"><g fill="#231F20"><circle cx="321.45" cy="-3.201" r="32" style="fill:#000" transform="rotate(17.964)"/><path style="fill:#000" d="M256.127 131.16c-.624.02-1.251.072-1.883.156l-65.76 9.9c-9.694 1.693-16.848 8.52-20.334 19.268l-17.273 53.272c-2.714 8.37 1.914 17.44 10.285 20.154 8.371 2.714 17.442-1.914 20.156-10.285l16.686-51.463 35.375-5.35-2.334 7.196v.002l-29.406 88.861 89.746 67.608 4.867 90.125c.431 8.063 6.858 14.017 14.63 14.666l1.794.15c8.761-.373 15.996-7.697 15.523-16.467l-4.883-101.457c-.146-2.975-1.179-5.827-2.834-8.252l-.01-.17-49.712-49.719v-.003l32.908-101.498c2.992-9.228-8.948-15.201-11.611-16.065l-30.44-9.87a16.052 16.052 0 0 0-5.49-.759z"/><path style="fill:#000;fill-opacity:1" d="m311.922 158.008-13.908 42.902 3.814 7.4L314 231.92l4.723 9.16c2.086 4.037 7.17 6.615 12.371 5.6l7.013-1.553.043.03 43.97-9.737c8.629-1.912 14.124-10.388 12.212-19.018-.914-4.287-2.757-7.509-6.113-9.685-3.44-2.231-8.477-3.473-12.903-2.53l-15.57 3.41-15.568 3.41-4.463.977z"/><path d="m160.493 307.31-72.682-1.168c-4.353.537-8.233 3.648-10.73 6.901-2.498 3.253-3.614 6.648-2.996 11.06.559 4.494 3.096 8.82 6.489 11.297 3.23 2.357 11.28 3.032 15.553 2.436l75.389.173a15.882 15.882 0 0 0 10.876-6.423l49.145-36.113-34.217-25.362z" style="fill:#000"/></g></svg>