<svg xmlns="http://www.w3.org/2000/svg" xml:space="preserve" viewBox="0 0 512 512"><path d="M78.376 152.072a199 199 0 0 1 245.836-52.65A199 199 0 0 1 425.423 329.56" style="fill:none;fill-opacity:1;stroke:#000;stroke-width:18;stroke-dasharray:none;stroke-opacity:1;paint-order:markers fill stroke;stop-color:#000" transform="rotate(-4.817)"/><path d="m415.251 261.502 39.297 50.131M494.788 269.938 442.52 310.91" style="fill:#0f0;stroke:#000;stroke-width:18;stroke-linecap:butt;stroke-linejoin:miter;paint-order:normal;stop-color:#000"/><path d="M-388.826-401.11a199 199 0 0 1 245.836-52.65A199 199 0 0 1-41.779-223.621" style="fill:none;fill-opacity:1;stroke:#000;stroke-width:18;stroke-dasharray:none;stroke-opacity:1;paint-order:markers fill stroke;stop-color:#000" transform="rotate(175.183)"/><path d="M96.753 250.493 57.456 200.36M17.217 242.057l52.268-40.972" style="fill:#0f0;stroke:#000;stroke-width:18;stroke-linecap:butt;stroke-linejoin:miter;paint-order:normal;stop-color:#000"/><path d="m170.746 336.27 23.245 23.245 102.415-101.757 52.42 7.532 25.615-25.887 2.64-27.858-8.796-8.48-26.844 26.958-34.638-6.29-6.221-34.63 26.483-26.597-8.79-8.84-26.613 2.274-25.774 25.728 6.588 52.16z" style="fill:none;stroke:#000;stroke-width:14;stroke-dasharray:none;stroke-opacity:1;paint-order:stroke markers fill;stop-color:#000"/><path d="m323.66 360.708 23.245-23.245-63.68-65.005-24.119 24.118zM241.299 254.828l-45.026-45.026 37.48-37.48-23.56-22.949-58.622 57.768-.09 47.454 44.792-44.793 45.026 45.026z" style="fill:none;stroke:#000;stroke-width:14;stroke-dasharray:none;stroke-opacity:1;paint-order:stroke markers fill;stop-color:#000"/></svg>