<svg viewBox="0 0 512 512" xml:space="preserve" xmlns="http://www.w3.org/2000/svg"><g fill="#231F20" style="fill:#000" transform="translate(-28.054)"><circle cx="314.95" cy="11.027" r="32" style="fill:#000" transform="rotate(18.912)"/><path d="m263.24 277.742 34.583-100.94c3.144-9.177-8.7-15.334-11.344-16.255l-27.891-9.711c-5.604-1.61-12.872-2.512-16.803 1.773l-14.39 31.986-47.402 109.46c31.288 6.739 53.588 6.57 83.247-16.313zM390.588 215.747l-85.383-41.087-11.152 31.425 76.89 35.292 3.838 2.15c7.698 4.343 17.45 1.71 21.793-5.987 2.185-3.801 2.967-7.43 1.924-11.292-1.068-3.958-3.987-8.246-7.91-10.501z" style="fill:#000"/><path style="fill:#000;stroke-width:8.32417;stroke-linecap:square;paint-order:markers stroke fill" d="M131.322 226.184c-80.775 7.416-73.155 107.672-11.817 119.685 20.877-.532 24.472-10.093 38.293-9.86 7.547.128 13.918 3.286 20.903 6.12l108.45-63.799-36.382-.025v.064l-63.992.022c-8.334 0-49.83-10.764-55.455-52.207zm302.886 0c-5.625 41.443-47.12 52.207-55.453 52.207l-63.994-.043H312.497L196.628 346.51c.678.025 1.348.061 2.05.053 17.185-.212 24.485-12.436 41.28-12.395 16.796.04 26.416 11.98 41.614 11.926 15.198-.054 25.834-11.743 40.234-11.719 14.4.024 27.306 12.22 41.127 12.166 13.82-.054 28.623-11.75 40.26-11.752 11.637 0 24.92 11.41 38.953 11.666v.033c64.863-8.452 74.508-112.735-7.938-120.304z"/><path style="stroke-width:9.80808;stroke-linecap:square;paint-order:markers stroke fill" transform="rotate(59.532)" d="M385.497-216.39h12.866v88.202l-12.866 21.818z"/></g></svg>