<?xml version="1.0" encoding="UTF-8" standalone="no"?>
<svg
   width="512"
   height="512"
   viewBox="0 0 512 512"
   version="1.1"
   id="svg16"
   sodipodi:docname="ios-earth-outline.svg"
   inkscape:version="1.2.2 (b0a8486541, 2022-12-01)"
   xmlns:inkscape="http://www.inkscape.org/namespaces/inkscape"
   xmlns:sodipodi="http://sodipodi.sourceforge.net/DTD/sodipodi-0.dtd"
   xmlns="http://www.w3.org/2000/svg"
   xmlns:svg="http://www.w3.org/2000/svg"
   xmlns:rdf="http://www.w3.org/1999/02/22-rdf-syntax-ns#"
   xmlns:cc="http://creativecommons.org/ns#"
   xmlns:dc="http://purl.org/dc/elements/1.1/">
  <defs
     id="defs20" />
  <sodipodi:namedview
     id="namedview18"
     pagecolor="#ffffff"
     bordercolor="#000000"
     borderopacity="0.25"
     inkscape:showpageshadow="2"
     inkscape:pageopacity="0.0"
     inkscape:pagecheckerboard="0"
     inkscape:deskcolor="#d1d1d1"
     showgrid="false"
     inkscape:zoom="1.2208427"
     inkscape:cx="149.48691"
     inkscape:cy="292.83051"
     inkscape:window-width="1920"
     inkscape:window-height="1023"
     inkscape:window-x="0"
     inkscape:window-y="33"
     inkscape:window-maximized="1"
     inkscape:current-layer="svg16" />
  <title
     id="title2">ionicons-v5-k</title>
  <path
     d="M 455.88031,256 C 455.88031,145.61417 366.38583,56.119686 256,56.119686 145.61417,56.119686 56.119686,145.61417 56.119686,256 c 0,110.38583 89.494484,199.88031 199.880314,199.88031 110.38583,0 199.88031,-89.49448 199.88031,-199.88031 z"
     style="fill:none;stroke:#000000;stroke-width:16;stroke-miterlimit:10;stroke-dasharray:none"
     id="path4" />
  <path
     id="path6"
     d="m 381.50391,178.07812 c -6.77844,0.287 -13.34617,2.03886 -20.04138,2.96212 -1.84954,0.29642 -3.88811,0.62025 -5.64222,0.95585 -4.38283,0.88277 -8.91473,2.10925 -12.41992,5.02149 -2.88826,2.5402 -5.07326,5.75476 -7.24423,8.89967 -3.46571,5.15514 -6.89282,10.43029 -11.4934,14.66783 -4.7132,4.48682 -9.02898,9.66055 -11.30608,15.83446 -2.08553,5.57531 -1.81468,11.8317 0.13756,17.40315 3.34056,10.14936 10.82691,18.91615 20.49352,23.53658 7.46689,3.64878 16.00577,4.85416 24.23294,3.92784 0.56262,-0.0603 1.45499,-0.18761 2.14607,-0.28639 7.20607,-0.94729 14.33146,-2.9019 21.64703,-2.74264 4.7354,0.12601 9.66318,1.66274 12.93848,5.23261 3.56486,3.79531 5.00917,9.05889 5.38196,14.13869 0.23999,3.15445 0.10074,6.49364 0.22826,9.5425 0.33923,7.53868 2.9734,14.69034 5.18903,21.82522 2.60722,9.29088 2.21051,19.03 3.18155,28.54971 1.03261,11.21254 2.94301,22.43962 6.93606,33.00788 3.52931,-4.94801 6.97168,-9.96209 10.63211,-14.81406 1.46655,-1.85789 3.29575,-3.52161 4.20665,-5.74673 0.4931,-2.76154 -0.18318,-5.55251 -0.59181,-8.28115 -0.82434,-4.52029 -1.77188,-9.05267 -1.77835,-13.6687 -0.27498,-6.03908 -0.0929,-12.19757 -1.67169,-18.11472 -0.50455,-1.83257 -1.13213,-3.61131 -1.75405,-5.33245 -2.13181,-5.87796 -4.48752,-11.83311 -4.73591,-18.15861 -0.48897,-6.63293 -0.22977,-13.22778 -1.02906,-19.83291 -0.70335,-5.39476 -2.70854,-10.68056 -6.1927,-14.90108 -5.24951,-6.65527 -12.95998,-11.18493 -21.21926,-12.94206 -7.67311,-1.73781 -15.66162,-1.32915 -23.3612,0.0173 -7.86007,1.10404 -15.90986,2.02454 -23.79691,0.64966 -4.02293,-0.74488 -8.15266,-2.64656 -10.32104,-6.27842 -2.07888,-3.48958 -1.81774,-7.95701 -0.10653,-11.53831 2.02531,-4.79 5.6979,-8.62952 9.59765,-11.96518 2.22464,-1.95937 4.42614,-4.0506 5.79742,-6.72048 2.14342,-3.56312 4.20854,-7.46125 7.82914,-9.74527 3.75119,-2.21577 8.09574,-3.0585 12.30999,-3.9276 3.88969,-0.70079 7.89761,-1.2352 11.83684,-0.65644 4.26921,0.83081 7.58924,3.89514 10.57007,6.86129 2.10702,2.17705 4.32051,4.29536 6.95716,5.82455 5.35438,3.42069 11.46036,5.75077 17.78497,6.48277 3.30918,0.23563 6.63797,-0.0529 9.89784,-0.63717 0.67226,-0.11784 1.63187,-0.31079 2.41138,-0.49172 5.56143,-1.29917 11.09366,-3.30236 15.67235,-6.79564 2.4926,-1.9192 4.79009,-4.41028 5.45426,-7.58074 0.64028,-2.76421 -0.26409,-5.57757 -1.14087,-8.1852 -1.9208,-5.09797 -4.5562,-9.8817 -6.91665,-14.78069 -2.5235,1.8579 -4.10777,4.6451 -5.89631,7.15473 -2.63201,3.9065 -5.616,7.92811 -10.02166,9.93707 -3.81961,1.71617 -8.30484,1.58617 -12.137,-0.0232 -6.15684,-2.35816 -10.96803,-7.04335 -15.73019,-11.43192 -0.90225,-0.81007 -2.01794,-1.79555 -2.84766,-2.43164 -2.66242,-2.16038 -5.84094,-3.75067 -9.27053,-4.1708 -1.58935,-0.23113 -3.19952,-0.28527 -4.80368,-0.25108 z" />
  <path
     id="path8"
     d="m 147.76882,87.931942 c -1.93052,9.652578 0.32333,34.894028 6.99754,42.163278 2.49662,2.57659 5.49387,4.59877 8.09201,7.06813 3.46659,3.13841 7.09024,7.76403 7.89102,12.44095 0.63092,3.55023 -0.26532,6.65354 -0.54729,10.23501 -0.47108,5.08893 4.84237,7.23032 1.79723,11.3591 -2.10289,2.97458 -7.30132,8.58329 -9.25026,11.67365 -1.93447,2.85557 -5.02047,7.51752 -7.63621,9.79717 -1.79489,1.77127 -4.19225,2.96096 -6.73187,3.07184 -5.47378,0.73822 -11.34641,1.90349 -16.62581,3.27407 -5.6281,1.43997 -15.58502,8.4869 -21.21715,9.90462 -5.37605,1.11181 -11.273965,-0.63069 -15.072504,-4.6239 -4.278468,-4.21157 -7.294523,-14.6858 -9.432029,-20.18168 -1.277129,-3.4026 -0.410679,-9.45847 -1.791309,-12.82121 L 67.96875,184.4375 c 1.545664,3.35494 3.569788,6.50465 4.636033,10.06724 4.733998,13.58386 12.923247,25.53243 20.129592,37.86635 3.379569,5.74078 6.556809,11.60677 9.302365,17.67884 2.33238,4.68678 6.59368,8.13804 11.27394,10.32138 6.97885,3.39205 14.66475,5.42058 21.41123,9.46095 7.14933,4.15994 12.80992,10.92677 15.30532,18.84338 2.48704,7.58113 2.28801,15.67967 1.85211,23.54661 -0.28796,6.44717 -0.87606,13.01545 0.55523,19.37429 0.95538,4.23059 3.06268,8.26303 6.36635,11.12822 4.58907,4.17414 10.21846,6.93788 15.13072,10.6854 4.99402,3.70091 9.34252,8.44263 11.89119,14.16282 3.29595,7.11626 4.08546,15.02523 4.80708,22.73964 0.18084,1.82691 0.35111,3.66208 0.57083,5.40243 1.42479,12.49633 3.61882,24.95403 6.59544,37.19526 1.03987,4.02188 1.78113,8.14432 3.29171,12.02719 0.63219,1.43204 1.30916,3.02228 2.79883,3.75195 2.08682,1.17285 4.30696,2.22648 5.98047,3.98633 2.23318,0.62671 4.42486,1.5933 6.76953,1.66992 1.39875,-3.38783 1.2469,-7.13615 1.46813,-10.72885 0.0724,-3.94562 0.53779,-7.88341 1.49614,-11.71432 3.71138,-16.18642 12.13236,-31.17668 23.60538,-43.13676 8.41418,-8.64274 18.6235,-15.32667 26.82025,-24.19487 4.13655,-4.51228 7.49699,-9.76434 9.58914,-15.53084 1.87271,-5.00895 2.97424,-10.29996 3.30612,-15.63576 0.0177,-0.47485 0.063,-1.06905 0.0718,-1.60165 0.15026,-5.33026 -0.38438,-10.71537 -1.86595,-15.84646 -1.86283,-5.71446 -6.03746,-10.33658 -10.70481,-13.97046 -4.38403,-3.43609 -9.22608,-6.2274 -14.10455,-8.89198 -1.72729,-0.92783 -3.63826,-1.94555 -5.44973,-2.88221 -8.17145,-4.24548 -16.46912,-8.49805 -23.47424,-14.56421 -5.27409,-4.41613 -10.22546,-9.42497 -16.48454,-12.46084 -3.25356,-1.52809 -6.91161,-1.99184 -10.47345,-1.72215 -4.79747,0.18045 -9.71951,0.37186 -14.35474,-1.10792 -2.01767,-0.5736 -3.94531,-1.4131 -5.92736,-2.09275 -0.59256,-0.1984 -1.49765,-0.4839 -2.23248,-0.63465 -2.8907,-0.78929 -5.87412,0.23822 -8.40105,1.63463 -4.75661,2.675 -5.48567,6.62515 -10.71207,8.39618 -4.60176,1.68458 -12.33559,-4.68423 -16.95954,-6.25897 -6.18185,-2.06133 -14.33048,-3.65172 -18.61225,-8.47255 -3.83403,-4.41741 -5.02728,-6.28099 -6.69394,-11.90883 -1.46041,-5.10953 -1.48744,-10.91736 1.2213,-15.62876 2.49527,-4.38037 6.91432,-7.35241 11.62971,-8.907 5.62375,-1.96005 11.62711,-2.42341 17.53571,-2.66346 5.23753,-0.0507 10.65457,1.23377 14.82355,4.53079 3.34835,2.45546 2.94328,12.66644 6.57231,14.75752 0.39891,0.0668 4.37973,-0.88196 4.12028,-6.21166 -0.75507,-7.66325 -0.80928,-8.72088 -1.4409,-13.03704 -0.88695,-4.86235 -1.29472,-10.10254 0.72987,-14.7497 2.1589,-5.1837 6.52902,-8.97426 10.92446,-12.26173 3.30002,-2.62705 7.06724,-5.03127 9.0634,-8.8856 1.557,-3.45643 0.82604,-7.40818 -0.39388,-10.84698 -1.20175,-3.61546 -1.80533,-7.61951 -0.56344,-11.3108 1.54267,-5.19751 5.42794,-9.29591 9.64518,-12.51626 3.08949,-2.40988 6.3365,-4.63813 9.75935,-6.54566 5.55454,-2.7967 1.5649,-1.13599 7.45401,-2.82399 4.71114,-1.32621 8.8852,-3.46906 13.018,-6.201 0.88697,-0.60933 1.90311,-1.58202 1.50286,-2.7705 -0.58111,-2.60784 -2.47074,-4.6295 -3.97044,-6.75274 -3.63925,-4.76869 -2.98835,-5.9089 -8.00205,-9.30675 -1.83328,-1.18613 -4.26386,-2.14997 -6.36462,-1.05672 -2.79182,1.37312 -4.66955,3.96497 -6.75722,6.17538 -2.95791,3.36249 -6.20363,6.58333 -10.19518,8.70209 -6.13575,3.58152 -6.73221,0.53426 -13.92178,0.27431 -4.97572,-0.25049 -9.94786,-2.37957 -13.1669,-6.25501 -2.85707,-3.14433 -4.83713,-7.48034 -4.031,-11.79048 0.71845,-4.16827 -2.3904,-22.478231 0.80383,-25.026179 2.2036,-1.870375 4.79384,-3.388636 6.46905,-5.799885 0.36018,-1.625258 -0.54066,-3.182429 -1.14623,-4.635659 -1.76984,-3.621436 1.78213,8.266973 -1.10634,5.480974 l -22.98704,12.974911 z m 29.88743,191.579778 c 0.68858,-0.0521 1.25942,0.57214 1.92893,0.30909 2.94626,-0.45189 5.9279,0.0502 8.86495,0.34476 3.98304,0.52506 7.95159,1.19552 11.87995,2.03365 3.68392,0.91033 7.02284,2.85604 9.92766,5.26204 2.89352,2.33045 5.67463,4.80202 8.7071,6.95671 10.09454,7.47957 21.10891,13.57557 32.07919,19.64989 4.36344,2.47023 8.48441,5.82481 10.64593,10.45668 1.66969,3.43145 2.07042,7.38727 1.36024,11.11926 -0.9462,5.26268 -3.52381,10.11045 -6.71096,14.35232 -5.94444,7.75946 -14.19755,13.19367 -21.64002,19.36716 -2.39655,2.00765 -4.75045,4.10296 -6.61937,6.62666 -2.31619,2.87598 -9.65631,12.04048 -13.15902,13.47669 -3.22832,1.22943 -4.39773,-8.9267 -4.39773,-8.9267 -1.64186,-4.69531 -2.41242,-6.5258 -3.05826,-9.91298 -0.34973,-2.22074 -0.54209,-4.43089 -1.33398,-6.58984 -2.69832,-7.3511 -6.93564,-14.13308 -12.41321,-19.73409 -2.56185,-2.57485 -5.30863,-5.01481 -8.39841,-6.93863 -4.09302,-2.38483 -8.62216,-4.38893 -11.7045,-8.1223 -2.46548,-3.17428 -2.75947,-7.39077 -2.57444,-11.25892 0.17735,-4.2242 1.18642,-8.44933 0.50324,-12.67878 -0.58615,-5.53905 -1.82938,-11.17796 -0.78897,-16.75738 0.31312,-1.19041 0.58918,-2.39457 0.54035,-3.63295 0.14031,-1.93177 1.3472,-3.77922 3.16406,-4.51367 0.94232,-0.63912 2.05855,-0.97194 3.19727,-0.88867 z"
     sodipodi:nodetypes="sccccccccccccccccccccccccccccccccccccccccccccccccccccccccccccccccccccccccccccccccccccsccccccccccccccccccccccccc" />
  <path
     d="m 184.46,67.09 c 4.74,4.63 9.2,10.11 16.27,10.57 6.69,0.45 13,-3.17 18.84,1.38 6.48,5 11.15,11.33 19.75,12.89 8.32,1.51 17.13,-3.35 19.19,-11.86 2,-8.11 -2.31,-16.93 -2.57,-25.07 0,-1.13 0.61,-6.15 -0.17,-7 -0.58,-0.64 -10.42557,3.527668 -11.16557,3.547668 -5.42,0.16 3.67872,23.881723 -3.51793,25.370715 -7.66733,2.782559 -13.13226,-7.708959 -16.40847,-8.135338 C 207.71277,66.575113 191.51681,57.509809 176.21,63.87 c 2.43,1.68 5.48,2.35 8.25,3.22 z"
     id="path10"
     sodipodi:nodetypes="cccccccccscc" />
  <path
     d="m 353.84358,126.67194 c 8.49,0 15.16441,-1.58431 12.42441,-11.40431 -2.3,-8.23 -7.70372,-23.992007 -17.24372,-19.552007 -6.07,2.82 5.05235,12.497767 -4.98785,20.333347 -0.81,8.08 4.14716,10.62297 9.80716,10.62297 z"
     id="path12"
     sodipodi:nodetypes="scccs" />
  <path
     d="m 347.06841,171.54003 c 8.67,5.19 21.2145,5.37847 27.7545,-2.03153 3.00915,-3.41548 2.31194,-14.52118 6.37298,-20.22843 2.83523,-3.98453 10.02588,-3.56418 13.80411,-3.56007 4.04594,-0.008 4.91979,3.01741 7.80712,5.85167 8.4926,11.14136 2.62496,16.97794 3.43496,21.89794 1.81,11.05 21.48442,-1.3644 24.57442,-5.6444 2,-2.79 0.3235,-15.73521 -0.5865,-19.36521 -0.84,-3.39 -18.44408,-10.17972 -28.30276,-21.78806 -5.14,-9 -4.33704,-8.59496 -12.03704,-15.86496 -7.41,-7 -7.07645,-10.48741 -14.10645,-3.21741 -5.76,6 1.1136,16.87656 -2.8264,24.17656 -2.78,5.13 -11.9068,4.31027 -17.5368,5.64027 -3.1,0.73 -6.23385,2.42711 -8.83385,4.50711 -7.24,5.7 -6.37829,25.50652 0.48171,29.62652 z"
     id="path14"
     sodipodi:nodetypes="ccscccccccccccc" />
  <metadata
     id="metadata4551">
    <rdf:RDF>
      <cc:Work
         rdf:about="">
        <dc:title>ionicons-v5-k</dc:title>
      </cc:Work>
    </rdf:RDF>
  </metadata>
</svg>
