<?xml version="1.0" encoding="UTF-8" standalone="no"?>
<svg
   viewBox="0 0 512 512"
   style="enable-background:new 0 0 512 512"
   xml:space="preserve"
   version="1.1"
   id="svg4"
   sodipodi:docname="ios-bluetooth-off-outline.svg"
   inkscape:version="1.2.2 (b0a8486541, 2022-12-01)"
   xmlns:inkscape="http://www.inkscape.org/namespaces/inkscape"
   xmlns:sodipodi="http://sodipodi.sourceforge.net/DTD/sodipodi-0.dtd"
   xmlns="http://www.w3.org/2000/svg"
   xmlns:svg="http://www.w3.org/2000/svg"><defs
     id="defs8" /><sodipodi:namedview
     id="namedview6"
     pagecolor="#ffffff"
     bordercolor="#000000"
     borderopacity="0.25"
     inkscape:showpageshadow="2"
     inkscape:pageopacity="0.0"
     inkscape:pagecheckerboard="0"
     inkscape:deskcolor="#d1d1d1"
     showgrid="false"
     inkscape:zoom="1.4707461"
     inkscape:cx="142.44471"
     inkscape:cy="260.07208"
     inkscape:window-width="1920"
     inkscape:window-height="1023"
     inkscape:window-x="0"
     inkscape:window-y="33"
     inkscape:window-maximized="1"
     inkscape:current-layer="svg4" /><path
     id="path1801"
     style="color:#000000;display:inline;fill:#000000;-inkscape-stroke:none;paint-order:fill markers stroke"
     d="M 248.9043 47.808594 L 250.01953 236.50391 L 158.33398 153.07617 L 146.27344 163.36914 L 246.57227 255.57812 L 147.52539 351.8125 L 159.20508 362.49023 L 250.24023 274.21484 L 251.36914 464.29492 L 255.93555 460.04102 L 365.47656 357.96484 L 268.69922 255.75195 L 364.28711 155.16602 L 248.9043 47.808594 z M 265.17188 85.664062 L 341.86523 155.4668 L 266.06445 235.83008 L 265.17188 85.664062 z M 266.30664 276.32031 L 343.19531 357.35547 L 267.19922 427.30664 L 266.30664 276.32031 z " /><path
     d="m 366.98527,255.99183 35.05766,35.05767 -5.72036,5.72853 -35.05767,-35.05766 -35.05766,35.05766 -5.72037,-5.72853 35.05767,-35.05767 -35.05767,-35.05767 5.72037,-5.71219 35.05766,35.05767 35.05767,-35.05767 5.72036,5.71219 z"
     id="path2587"
     style="stroke-width:8.17195" /></svg>
