<svg xmlns="http://www.w3.org/2000/svg" width="512" height="512" viewBox="0 0 512 512" version="1.1">
	<path d="M256,49.375c-114.9,0-208,93.101-208,208c0,114.9,93.1,208,208,208c114.9,0,208-93.1,208-208 C464,142.476,370.9,49.375,256,49.375z M256,448.075c-105.1,0-190.7-85.5-190.7-190.7c0-105.199,85.6-190.699,190.7-190.699 c105.1,0,190.699,85.6,190.699,190.699C446.699,362.476,361.1,448.075,256,448.075z" />
	<title>ionicons-v5-k</title>
	<polygon points="358.14,98.09 413.91,153.87 103,464 48,464 48,409" transform="matrix(0.4883706,0,0,0.4926035,130.97714,131.00653)" />
	<path d="m 338.88627,200.95622 -27.212,-27.44786 15.4618,-15.10322 c 2.38814,-2.42362 6.05092,-3.75365 9.4451,-3.75365 a 12.653682,12.763356 0 0 1 8.99578,3.75365 l 8.3023,8.37425 a 12.634147,12.743653 0 0 1 3.70185,9.05405 c 0,3.44823 -1.32349,7.11812 -3.72139,9.53681 z m -3.67254,-34.8911 z" style="stroke-width:0.49048245" />
</svg>
