<svg width="512" height="512" style="enable-background:new 0 0 512 512" xml:space="preserve" xmlns="http://www.w3.org/2000/svg"><path d="M134.5 66.796c-45 2.5-80.6 38.3-80.4 82.1 0 19.8 7.4 38 19.6 52.2l54-52.6 8.529 8.53C100.667 188.489 80.412 232.538 80.28 278.7c.154 43.042 17.81 84.363 49.278 115.334l-35.114 43.02 12.301 10.203 34.576-42.143c31.886 26.108 72.58 40.474 114.679 40.486 38.933-.145 76.713-12.567 107.408-35.316 2.498-1.766 5.139-3.6 7.406-5.268l34.98 42.733 12.3-10.1-35.631-43.635c31.455-30.97 49.1-72.283 49.254-115.314-.017-46.203-20.198-90.333-55.738-121.88l8.322-8.323 54.1 52.6c12.2-14.2 19.599-32.302 19.599-52.202.1-43.8-35.5-79.6-80.4-82.1-28.674-.112-44.568 7.484-58.6 18l53.8 52.4-9.49 9.4c-26.607-19.5-58.544-31.345-92.023-34.13-.073-8.44-7.031-15.37-15.486-15.37-8.5 0-15.5 7-15.5 15.5v.1c-8.758 1.14-18.36 2.457-25.906 4.229-23.793 5.544-46.103 15.753-65.497 29.97l-9.699-9.698L193 84.796c-22.97-14.184-31.379-18.061-58.5-18zm32.801 21-91.102 88.7c-4.2-8.6-6.4-18.4-6.5-28-.1-35.1 28.4-64.6 65.5-66.8 14.998-.67 23.22 1.556 32.102 6.1zm209.5-6c37.2 2 65.6 31.5 65.5 66.8 0 9.6-2.3 19.4-6.5 28.1l-91.102-88.8c11.155-5.185 18.053-6.46 32.102-6.1zM256 126.364c88.576 0 160.38 68.203 160.38 152.336 0 84.131-71.805 152.333-160.38 152.334-88.575 0-160.38-68.203-160.38-152.334 0-84.133 71.804-152.336 160.38-152.336zm-8 26.778v118.32h-86.018v16H264v-134.32z"/></svg>