<?xml version="1.0" encoding="UTF-8" standalone="no"?>
<svg
   viewBox="0 0 512 512"
   xml:space="preserve"
   version="1.1"
   id="svg43327"
   sodipodi:docname="ios-drizzle.svg"
   inkscape:version="1.2.2 (b0a8486541, 2022-12-01)"
   xmlns:inkscape="http://www.inkscape.org/namespaces/inkscape"
   xmlns:sodipodi="http://sodipodi.sourceforge.net/DTD/sodipodi-0.dtd"
   xmlns="http://www.w3.org/2000/svg"
   xmlns:svg="http://www.w3.org/2000/svg"><defs
     id="defs43331" /><sodipodi:namedview
     id="namedview43329"
     pagecolor="#ffffff"
     bordercolor="#666666"
     borderopacity="1.0"
     inkscape:showpageshadow="2"
     inkscape:pageopacity="0.0"
     inkscape:pagecheckerboard="0"
     inkscape:deskcolor="#d1d1d1"
     showgrid="false"
     inkscape:zoom="2.8367135"
     inkscape:cx="287.83308"
     inkscape:cy="284.48414"
     inkscape:window-width="3840"
     inkscape:window-height="2122"
     inkscape:window-x="0"
     inkscape:window-y="0"
     inkscape:window-maximized="1"
     inkscape:current-layer="svg43327" /><path
     id="path43325"
     d="M 236,48 C 166.00007,48 108.19922,99.700852 108.19922,170.80078 L 108.5,175.59961 C 66.200042,181.1996 32,220.10004 32,264.5 32,311.49995 69.899656,353 116.59961,353 l 15.13477,-0.13281 -13.46094,18.74804 c -2.57684,3.5888 -1.75663,8.58703 1.83203,11.16407 3.5888,2.57683 8.58702,1.75662 11.16406,-1.83203 l 20.28516,-28.25196 100.98633,-0.88281 -14.21875,19.80273 c -2.57684,3.5888 -1.75663,8.58703 1.83203,11.16407 3.5888,2.57683 8.58702,1.75662 11.16406,-1.83203 l 21.04297,-29.3086 100.98633,-0.88281 -14.97852,20.85937 c -2.57643,3.58931 -1.75533,8.58764 1.83398,11.16407 3.5888,2.57684 8.58703,1.75663 11.16407,-1.83203 l 22.14453,-30.84375 C 442.75863,340.71251 480.09961,296.07831 480.09961,244 c -0.1,-58.59994 -47.39928,-100.80078 -105.69922,-100.80078 l -13.30078,-0.0996 C 349.29962,89.599663 305.99993,48 236,48 Z"
     sodipodi:nodetypes="sccscccccccscccccccccccs" /><path
     style="color:#000000;fill:#000000;stroke-linecap:round;-inkscape-stroke:none"
     d="M 184.29687,384.77148 A 8,8 0 0 0 179.0957,388 l -22.33593,31.10937 a 8,8 0 0 0 1.83398,11.16407 8,8 0 0 0 11.16406,-1.83203 l 22.33399,-31.10938 a 8,8 0 0 0 -1.83203,-11.16406 8,8 0 0 0 -5.9629,-1.39649 z"
     id="path44029" /><path
     style="color:#000000;fill:#000000;stroke-linecap:round;-inkscape-stroke:none"
     d="M 304.3457,384.77148 A 8,8 0 0 0 299.14258,388 l -22.33399,31.10937 a 8,8 0 0 0 1.83399,11.16407 8,8 0 0 0 11.16406,-1.83203 l 22.33398,-31.10938 a 8,8 0 0 0 -1.83203,-11.16406 8,8 0 0 0 -5.96289,-1.39649 z"
     id="path44031" /></svg>
