<svg xmlns="http://www.w3.org/2000/svg" width="512" height="512" xml:space="preserve"><path d="M256 49.375c-114.9 0-208 93.101-208 208 0 114.9 93.1 208 208 208s208-93.1 208-208c0-114.899-93.1-208-208-208zm0 398.7c-105.1 0-190.7-85.5-190.7-190.7 0-105.199 85.6-190.699 190.7-190.699s190.699 85.6 190.699 190.699c0 105.101-85.599 190.7-190.699 190.7z"/><path d="M352 162h-53v-13.383c0-10.846-8.922-19.617-19.768-19.617H232.7c-10.78 0-19.701 8.771-19.701 19.617V162h-53v10h13.716l15.801 194.505c0 10.847 8.771 19.495 19.617 19.495h94.402c10.847 0 19.617-8.648 19.617-19.495L338.751 172H352v-10zm-129-13.383c0-5.423 4.345-9.617 9.701-9.617h46.532c5.423 0 9.768 4.194 9.768 9.617V162h-66v-13.383H223zm90 217.324v.536c0 5.424-4.109 9.523-9.465 9.523h-94.402c-5.423 0-10.133-4.1-10.133-9.523v-.536L183.491 172h145.418L313 365.941z"/><path d="M251 193h10v162h-10zm47.849 0h-9.775l-7.164 162h9.776zm-75.991 0h-9.708l7.164 162h9.775z"/></svg>