<svg xmlns="http://www.w3.org/2000/svg" xml:space="preserve" width="512" height="512"><path d="M337.254 336.707c25.746-25.944 36.253-60.953 32.076-94.378l48.387-68.094-81.39-80.772-67.722 48.905c-33.457-3.923-68.385 6.85-94.131 32.794-25.745 25.941-36.25 60.95-32.075 94.378l-48.387 68.093 81.389 80.772 67.723-48.906c33.458 3.922 68.385-6.85 94.13-32.792M194.82 195.357c33.32-33.576 88.05-33.78 121.623-.465 33.57 33.317 33.782 88.048.46 121.623-33.315 33.57-88.049 33.78-121.619.462-33.572-33.315-33.78-88.05-.464-121.62"/></svg>