<?xml version="1.0" encoding="UTF-8" standalone="no"?>
<svg
   width="512"
   height="512"
   viewBox="0 0 512 512"
   version="1.1"
   id="svg16"
   sodipodi:docname="ios-earth-outline.svg"
   inkscape:version="1.2.2 (b0a8486541, 2022-12-01)"
   xml:space="preserve"
   xmlns:inkscape="http://www.inkscape.org/namespaces/inkscape"
   xmlns:sodipodi="http://sodipodi.sourceforge.net/DTD/sodipodi-0.dtd"
   xmlns="http://www.w3.org/2000/svg"
   xmlns:svg="http://www.w3.org/2000/svg"
   xmlns:rdf="http://www.w3.org/1999/02/22-rdf-syntax-ns#"
   xmlns:cc="http://creativecommons.org/ns#"
   xmlns:dc="http://purl.org/dc/elements/1.1/"><defs
     id="defs20" /><sodipodi:namedview
     id="namedview18"
     pagecolor="#ffffff"
     bordercolor="#000000"
     borderopacity="0.25"
     inkscape:showpageshadow="2"
     inkscape:pageopacity="0.0"
     inkscape:pagecheckerboard="0"
     inkscape:deskcolor="#d1d1d1"
     showgrid="false"
     inkscape:zoom="0.98489741"
     inkscape:cx="374.15065"
     inkscape:cy="206.62051"
     inkscape:window-width="1920"
     inkscape:window-height="1023"
     inkscape:window-x="0"
     inkscape:window-y="33"
     inkscape:window-maximized="1"
     inkscape:current-layer="svg16" /><title
     id="title2">ionicons-v5-k</title><circle
     style="fill:none;fill-opacity:1;stroke:#000000;stroke-width:18;stroke-dasharray:none;stroke-opacity:1;paint-order:markers fill stroke;stop-color:#000000"
     id="path13322"
     cx="256.00281"
     cy="256.00211"
     r="198.99997" /><path
     d="m 294.24855,97.423357 c 8.49,0 15.16441,-1.58431 12.42441,-11.404307 -2.3,-8.23 -7.70372,-23.992007 -17.24372,-19.552007 -6.07,2.82 5.05235,12.497767 -4.98785,20.333347 -0.81,8.079997 4.14716,10.622967 9.80716,10.622967 z"
     id="path12"
     sodipodi:nodetypes="scccs"
     style="fill:#000000;stroke:none;stroke-opacity:1" /><metadata
     id="metadata4551"><rdf:RDF><cc:Work
         rdf:about=""><dc:title>ionicons-v5-k</dc:title></cc:Work></rdf:RDF></metadata><path
     style="opacity:1;fill:none;stroke:#000000;stroke-width:16;stroke-opacity:1;paint-order:markers fill stroke;stop-color:#000000"
     d="m 126.92308,104.54448 c 0,0 15.12461,10.52155 23.49073,12.3265 8.36612,1.80495 11.64838,2.9595 17.46144,5.15486 5.81306,2.19535 11.2648,11.12374 7.49633,18.07739 -3.76848,6.95364 -16.35987,18.98931 -31.80598,27.18377 -15.4461,8.19445 -12.99534,29.13568 -12.99534,29.13568 0,0 -4.30015,26.10221 -22.5549,8.23931 -18.254756,-17.8629 -19.244927,10.35258 -15.807056,17.90975 3.437872,7.55716 4.571767,10.43567 5.050773,12.59575 0.479005,2.16007 4.244153,10.61272 12.969813,10.32429 8.72565,-0.28844 14.25847,6.96439 23.33505,7.63529 9.07658,0.6709 25.7853,-0.42033 46.06699,20.53734 20.28168,20.95768 12.27779,16.18694 30.24046,28.41012 17.96267,12.22319 -22.39591,60.3703 -25.61894,64.38201 -3.22302,4.01171 -13.50587,15.24697 -19.50782,27.08516 -6.00196,11.83819 -18.02102,28.7713 -18.32651,28.56936"
     id="path4398" /><path
     style="opacity:1;fill:none;stroke:#000000;stroke-width:16;stroke-opacity:1;paint-order:markers fill stroke;stop-color:#000000"
     d="m 57.883147,237.30484 c 0,0 15.512503,8.38032 20.134438,13.53774 4.621934,5.15742 10.881997,13.53568 12.666304,16.3382 1.784307,2.80252 5.481774,6.01868 5.316031,27.33199 -0.165744,21.31332 7.69358,34.64106 15.9648,41.76926 8.27123,7.1282 9.31597,13.38739 10.24087,19.93062 0.9249,6.54322 5.74862,52.11983 5.74862,52.11983"
     id="path4503" /><path
     style="opacity:1;fill:none;stroke:#000000;stroke-width:16;stroke-opacity:1;paint-order:markers fill stroke;stop-color:#000000"
     d="m 182.78515,70.96113 c 0,0 -1.2507,8.001801 0.76967,17.508963 2.02037,9.507162 4.74316,11.885937 8.51654,14.864067 3.77338,2.97812 10.22253,5.48037 17.01209,2.62606 6.78957,-2.85431 13.21913,-10.577217 24.5479,-16.250103 11.32876,-5.672886 22.93787,-5.578066 23.27131,-16.389616 0.33345,-10.811549 -0.89985,-16.318365 -0.89985,-16.318365"
     id="path4505" /><path
     style="opacity:1;fill:none;stroke:#000000;stroke-width:16;stroke-opacity:1;paint-order:markers fill stroke;stop-color:#000000"
     d="m 316.35818,360.3302 c 0,0 3.47809,-24.82013 2.95338,-37.43465 -0.52471,-12.61451 -2.90129,-17.41538 -2.26842,-22.71272 0.63286,-5.29734 2.07801,-6.87393 1.55769,-11.6804 -0.52032,-4.80648 -5.11279,-9.84842 -9.90644,-8.67723 -4.79364,1.1712 -12.25314,3.47518 -15.56541,4.28368 -3.31228,0.8085 -24.99088,8.85724 -41.8669,-3.35277 -16.87602,-12.21001 -11.93259,-17.54187 -10.70317,-21.33867 1.22941,-3.79681 0.5366,-9.86432 4.57307,-16.17967 4.74739,-7.42764 -1.27448,-11.99908 1.39081,-23.00203 1.83921,-7.59263 9.99552,-12.97695 16.66371,-20.80283 16.33146,-19.16683 23.9111,-19.38998 30.89532,-19.40598 6.98422,-0.016 18.35876,-1.26958 22.63429,2.83667 4.27553,4.10624 12.27193,9.00408 20.85599,7.78668 8.58406,-1.21741 17.21018,-3.73545 23.458,0.007 6.24783,3.7424 11.59598,11.22278 14.12529,18.19568 2.5293,6.9729 15.98269,37.07127 18.55636,40.16723 2.57368,3.09596 3.34485,11.35836 14.23586,9.46404 10.89101,-1.89432 7.73424,7.03761 7.73424,7.03761 0,0 -4.65312,14.6359 -11.7464,25.17675 -7.09329,10.54085 -8.02028,17.8938 -11.75494,34.00426 -3.73465,16.11045 -7.31266,21.76194 -10.74716,25.78496 -3.43451,4.02303 -9.2658,6.52788 -11.75897,16.41434 -2.49317,9.88646 -7.99541,10.67192 -12.79838,12.88495 -4.80298,2.21303 -10.07269,9.88765 -13.24668,13.00796 -3.17399,3.12031 -20.28994,9.07212 -23.93246,-7.98337 -3.64252,-17.0555 -2.93251,-12.80019 -3.33868,-24.48145 z"
     id="path4507"
     sodipodi:nodetypes="cssssssssssssssssscssssssssc" /><path
     style="opacity:1;fill:none;stroke:#000000;stroke-width:16;stroke-opacity:1;paint-order:markers fill stroke;stop-color:#000000"
     d="m 198.06835,446.38222 c 0,0 0.0863,-16.32185 14.63806,-19.73281 14.55175,-3.41096 15.74334,0.85579 25.50233,1.02721 9.75899,0.17142 22.88195,7.61645 27.62404,6.14887 4.7421,-1.46759 22.21379,-2.15129 25.52962,3.11768 3.31582,5.26897 9.4658,12.94465 9.4658,12.94465"
     id="path5559" /><path
     style="opacity:1;fill:none;stroke:#000000;stroke-width:16;stroke-opacity:1;paint-order:markers fill stroke;stop-color:#000000"
     d="m 331.2096,71.760615 c 0,0 -11.34648,1.683202 -12.81644,7.578645 -1.46996,5.895442 -0.91942,10.997066 2.65923,14.148216 3.57865,3.15115 3.71601,5.083026 2.70163,7.746204 -1.01439,2.66317 -7.68074,-0.94339 -13.35861,2.83916 -5.67786,3.78254 -4.90412,8.21436 -5.99496,11.14279 -1.09083,2.92842 0.54353,3.98203 -4.0157,4.38636 -4.55923,0.40432 -7.36458,-5.78293 -12.61662,-3.49249 -5.25204,2.29044 -13.34344,9.07241 -12.60435,16.78205 0.7391,7.70963 0.84932,16.21232 5.98741,19.03654 5.13809,2.82422 3.83722,3.2246 11.05596,3.0251 7.21874,-0.19951 14.05454,-5.58121 14.03639,-9.49705 -0.0182,-3.91584 6.27409,-12.87597 14.98203,-8.40055 9.52549,3.36464 3.41523,17.54688 9.7825,25.70278 3.64383,2.93723 12.09234,2.67849 12.09234,2.67849 5.57222,-0.22716 4.72104,-18.84263 4.62868,-23.20107 -5.21048,-7.39038 -0.89608,-12.98697 5.10213,-12.59613 5.99822,0.39083 10.03375,5.28054 15.70868,13.74774 5.67493,8.46721 8.24545,13.56909 17.00947,14.61578 8.76401,1.04669 8.70245,-4.67542 15.06916,1.98583 6.36671,6.66126 -1.66418,15.28878 -1.76824,23.49149 -0.10406,8.20272 -2.46204,12.02726 6.20437,26.00046 8.66642,13.9732 10.96361,22.84504 12.69583,24.27553 1.73222,1.43049 13.89085,-0.65988 17.42531,-0.31901 3.53447,0.34087 7.58385,-3.44216 16.6444,-12.88306"
     id="path5561"
     sodipodi:nodetypes="csssssssssssccccssssssssc" /></svg>
