<svg xmlns="http://www.w3.org/2000/svg" xml:space="preserve" width="512" height="512"><path d="M337.254 336.707c25.746-25.944 36.253-60.953 32.076-94.378l48.387-68.094-81.39-80.772-67.722 48.905c-33.457-3.923-68.385 6.85-94.131 32.794-25.745 25.941-36.25 60.95-32.075 94.378l-48.387 68.093 81.389 80.772 67.723-48.906c33.458 3.922 68.385-6.85 94.13-32.792m9.085 1.944q-519.508-507.976 0 0" style="fill:#000"/><path d="M61.547 248a8 8 0 0 0-8 8 8 8 0 0 0 8 8h53.86a8 8 0 0 0 8-8 8 8 0 0 0-8-8zm335.047 0a8 8 0 0 0-8 8 8 8 0 0 0 8 8h53.86a8 8 0 0 0 8-8 8 8 0 0 0-8-8zM256 388.594a8 8 0 0 0-8 8v53.86a8 8 0 0 0 8 8 8 8 0 0 0 8-8v-53.86a8 8 0 0 0-8-8m0-335.047a8 8 0 0 0-8 8v53.86a8 8 0 0 0 8 8 8 8 0 0 0 8-8v-53.86a8 8 0 0 0-8-8m99.416 293.869a8 8 0 0 0-5.658 2.342 8 8 0 0 0 0 11.314l38.086 38.084a8 8 0 0 0 11.312 0 8 8 0 0 0 0-11.312l-38.084-38.086a8 8 0 0 0-5.656-2.342M118.5 110.5a8 8 0 0 0-5.656 2.344 8 8 0 0 0 0 11.312l38.084 38.086a8 8 0 0 0 11.314 0 8 8 0 0 0 0-11.314l-38.086-38.084a8 8 0 0 0-5.656-2.344m188.12 268.053A8 8 0 0 0 302.28 389l20.56 49.781a8 8 0 0 0 10.447 4.34 8 8 0 0 0 4.342-10.45l-20.563-49.778a8 8 0 0 0-10.447-4.34M178.713 68.879a8 8 0 0 0-4.342 10.45l20.563 49.778a8 8 0 0 0 10.447 4.34A8 8 0 0 0 209.72 123l-20.56-49.781a8 8 0 0 0-10.448-4.34M382.785 302.54a8 8 0 0 0-4.334 4.325 8 8 0 0 0 4.319 10.457l49.738 20.66a8 8 0 0 0 10.457-4.318 8 8 0 0 0-4.319-10.457l-49.738-20.662a8 8 0 0 0-6.123-.006zM73.37 174.012a8 8 0 0 0-4.335 4.324 8 8 0 0 0 4.319 10.457l49.738 20.662a8 8 0 0 0 10.457-4.32 8 8 0 0 0-4.319-10.457l-49.738-20.66a8 8 0 0 0-6.123-.006z" style="fill:#000;stroke-linecap:round;stroke-linejoin:round;stroke-miterlimit:1.1"/></svg>