<?xml version="1.0" encoding="UTF-8" standalone="no"?>
<svg
   viewBox="0 0 512 512"
   xml:space="preserve"
   version="1.1"
   id="svg43327"
   sodipodi:docname="ios-drizzle-outline.svg"
   inkscape:version="1.2.2 (b0a8486541, 2022-12-01)"
   xmlns:inkscape="http://www.inkscape.org/namespaces/inkscape"
   xmlns:sodipodi="http://sodipodi.sourceforge.net/DTD/sodipodi-0.dtd"
   xmlns="http://www.w3.org/2000/svg"
   xmlns:svg="http://www.w3.org/2000/svg"><defs
     id="defs43331" /><sodipodi:namedview
     id="namedview43329"
     pagecolor="#ffffff"
     bordercolor="#666666"
     borderopacity="1.0"
     inkscape:showpageshadow="2"
     inkscape:pageopacity="0.0"
     inkscape:pagecheckerboard="0"
     inkscape:deskcolor="#d1d1d1"
     showgrid="false"
     inkscape:zoom="2.8367135"
     inkscape:cx="287.83308"
     inkscape:cy="284.48414"
     inkscape:window-width="3840"
     inkscape:window-height="2122"
     inkscape:window-x="0"
     inkscape:window-y="0"
     inkscape:window-maximized="1"
     inkscape:current-layer="svg43327" /><path
     id="path43325"
     d="M 236 48 C 166.00007 48 108.19922 99.700852 108.19922 170.80078 L 108.5 175.59961 C 66.200042 181.1996 32 220.10004 32 264.5 C 32 311.49995 69.899656 353 116.59961 353 L 131.73438 352.86719 L 118.27344 371.61523 A 8 8 0 0 0 120.10547 382.7793 A 8 8 0 0 0 131.26953 380.94727 L 151.55469 352.69531 L 252.54102 351.8125 L 238.32227 371.61523 A 8 8 0 0 0 240.1543 382.7793 A 8 8 0 0 0 251.31836 380.94727 L 272.36133 351.63867 L 373.34766 350.75586 L 358.36914 371.61523 A 8 8 0 0 0 360.20312 382.7793 A 8 8 0 0 0 371.36719 380.94727 L 393.51172 350.10352 C 442.75863 340.71251 480.09961 296.07831 480.09961 244 C 479.99961 185.40006 432.70033 143.19922 374.40039 143.19922 L 361.09961 143.09961 C 349.29962 89.599663 305.99993 48 236 48 z M 236 64 C 265.29997 64 291.0008 72.300406 310.30078 87.900391 C 328.00076 102.30038 340.20001 122.59963 345.5 146.59961 L 348.40039 160 C 359.90038 159.3 374.40039 159.30078 374.40039 159.30078 C 398.90037 159.30078 421.49963 167.90041 438.09961 183.40039 C 454.79959 199.00038 463.90039 220.49963 463.90039 244.09961 C 464.00039 288.69956 430.29918 328.60079 387.19922 335.80078 C 387.19922 335.80078 378.29999 337 367 337 L 116.59961 337 C 98.599627 337 81.500378 329.0992 68.400391 315.19922 C 55.400404 301.49923 48 282.90076 48 264.30078 C 48 246.8008 54.600012 229.60038 66.5 215.90039 C 78.299988 202.4004 93.899626 193.7 110.59961 191.5 L 125.40039 189.5 L 124.40039 174.59961 L 124.09961 170.30078 C 124.19961 141.00081 135.79924 114.00037 156.69922 94.400391 C 177.6992 74.80041 205.80003 64 236 64 z " /><path
     style="color:#000000;fill:#000000;stroke-linecap:round;-inkscape-stroke:none"
     d="M 184.29687,384.77148 A 8,8 0 0 0 179.0957,388 l -22.33593,31.10937 a 8,8 0 0 0 1.83398,11.16407 8,8 0 0 0 11.16406,-1.83203 l 22.33399,-31.10938 a 8,8 0 0 0 -1.83203,-11.16406 8,8 0 0 0 -5.9629,-1.39649 z"
     id="path44029" /><path
     style="color:#000000;fill:#000000;stroke-linecap:round;-inkscape-stroke:none"
     d="M 304.3457,384.77148 A 8,8 0 0 0 299.14258,388 l -22.33399,31.10937 a 8,8 0 0 0 1.83399,11.16407 8,8 0 0 0 11.16406,-1.83203 l 22.33398,-31.10938 a 8,8 0 0 0 -1.83203,-11.16406 8,8 0 0 0 -5.96289,-1.39649 z"
     id="path44031" /></svg>
