<svg xmlns="http://www.w3.org/2000/svg" xml:space="preserve" viewBox="0 0 512 512"><path d="M236 48c-70 0-127.8 51.7-127.8 122.8l.3 4.8C66.2 181.2 32 220.1 32 264.5c0 47 37.9 88.5 84.6 88.5l15.134-.133-13.46 18.748a8 8 0 0 0 12.996 9.332l20.285-28.252 100.986-.882-14.219 19.802a8 8 0 0 0 12.996 9.332l21.043-29.308 100.987-.883-14.979 20.86a8 8 0 0 0 1.834 11.163 8 8 0 0 0 11.164-1.832l22.145-30.843C442.759 340.713 480.1 296.078 480.1 244c-.1-58.6-47.4-100.8-105.7-100.8l-13.3-.1C349.3 89.6 306 48 236 48Z"/><path d="M184.297 384.771a8 8 0 0 0-5.201 3.229l-22.336 31.11a8 8 0 0 0 1.834 11.163 8 8 0 0 0 11.164-1.832l22.334-31.109a8 8 0 0 0-1.832-11.164 8 8 0 0 0-5.963-1.397zM304.346 384.771a8 8 0 0 0-5.203 3.229l-22.334 31.11a8 8 0 0 0 1.834 11.163 8 8 0 0 0 11.164-1.832l22.334-31.109a8 8 0 0 0-1.832-11.164 8 8 0 0 0-5.963-1.397z" style="color:#000;fill:#000;stroke-linecap:round;-inkscape-stroke:none"/></svg>