<svg xmlns="http://www.w3.org/2000/svg" viewBox="0 0 512 512" xml:space="preserve"><path d="M359.114 455.746c12.953-21.22 12.911-21.858 14.938-47.574 1.864-25.181-2.778-48.47-14.097-71.08a8.544 8.544 0 0 1 3.857-11.35 8.544 8.544 0 0 1 11.35 3.857c12.532 25.392 16.687 51.569 14.66 79.867-2.205 29.104-2.634 30.063-17.232 56.228-9.44 14.026-23.995 4.516-13.476-9.948zM46.369 227.793c21.207-21.584 21.967-21.968 48.581-36.146 26.363-10.306 51.656-15.776 79.677-11.046 4.586.649 7.747 5.163 6.828 9.736-.648 4.587-5.162 7.748-9.735 6.829-24.918-4.296-47.208.923-70.796 10.152-21.637 12.076-22.327 12.162-41.214 30.416-13.437 13.388-24.194 4.476-13.341-9.94z"/><g transform="rotate(3.002 -804.647 -2602.484) scale(1.3572)"><circle cx="342.9" cy="163.9" r="14.7"/><path d="M378 210.5c-1.5-.4-2.9-1-4.4-2-6.7-4.5-8.6-13.6-4.1-20.3 4.5-6.7 13.6-8.6 20.3-4.1 3.7 2.4 5.9 6.1 6.4 10.1 6.4-13.8 2-30.6-11.1-39.3l-112.8-75c-12.6-8.4-29.3-6.4-39.7 4 3.5-.4 7.1.3 10.1 2.4 6.7 4.5 8.6 13.6 4.1 20.3-4.5 6.7-13.6 8.6-20.3 4.1-1-.7-1.7-1.4-2.6-2.2 1 8.9 5.9 17.4 14.1 22.8l112.8 75c8.5 5.8 18.6 7 27.2 4.2zm-52.5-58.1c6.4-9.6 19.4-12.2 28.9-5.9 9.6 6.4 12.2 19.4 5.9 28.9-6.4 9.6-19.4 12.2-28.9 5.9-9.5-6.2-12.4-19.4-5.9-28.9z"/></g><path d="m489.753 259.862-34.84 28.212c16.212-61.442 3.822-130.113-39.343-183.417C343.48 15.634 212.91 1.81 123.976 74.01c-17.914 14.507-32.636 31.16-44.31 49.44l14.6 9.377c10.722-16.872 24.203-32.247 40.568-45.408 81.44-65.949 201.38-53.343 267.317 28.197 40.495 50.006 51.345 114.192 35.002 172.101l-30.552-36.493-11.77 9.622 47.258 58.36 57.81-46.814zm-262.826 66.785 9.1 9-55.3 55.3 55.3 55.5-9.1 8.9-55.3-55.3-55.3 55.3-9.1-8.9 55.3-55.5-55.3-55.3 9.1-9 55.3 55.4z"/></svg>