<svg xmlns="http://www.w3.org/2000/svg" viewBox="0 0 512 512" xml:space="preserve"><g style="font-style:normal;font-weight:400;font-size:40px;line-height:1.25;font-family:sans-serif;letter-spacing:0;word-spacing:0;fill:#000;fill-opacity:1;stroke:none"><path d="M134.009 188.39H22.779v-14.72l85.885-130.157h-83.23V26.58h106.14V41.3L45.69 171.345h88.32z" style="font-style:normal;font-variant:normal;font-weight:400;font-stretch:normal;font-size:226.66667175px;font-family:'Open Sans';-inkscape-font-specification:'Open Sans';letter-spacing:0" transform="translate(115.55 135.44) scale(.8799)" aria-label="Z"/></g><g style="font-style:normal;font-weight:400;font-size:40px;line-height:1.25;font-family:sans-serif;letter-spacing:0;word-spacing:0;fill:#000;fill-opacity:1;stroke:none"><path d="M309.627 350.594h-98.144v-12.988l75.781-114.844h-73.437v-14.941h93.652v12.988l-75.781 114.746h77.93z" style="font-style:normal;font-variant:normal;font-weight:400;font-stretch:normal;font-size:200px;font-family:'Open sans';-inkscape-font-specification:'Open sans';letter-spacing:0" transform="matrix(.61591 0 0 .57103 118.612 145.324)" aria-label="Z"/></g><g style="font-style:normal;font-weight:400;font-size:40px;line-height:1.25;font-family:sans-serif;letter-spacing:0;word-spacing:0;fill:#000;fill-opacity:1;stroke:none"><path d="M468.964 491.323H390.45v-10.391l60.625-91.875h-58.75v-11.953h74.922v10.39l-60.625 91.797h62.343z" style="font-style:normal;font-variant:normal;font-weight:400;font-stretch:normal;font-size:160px;font-family:'Open sans';-inkscape-font-specification:'Open sans';letter-spacing:0" transform="matrix(.33685 0 0 .41458 199.266 171.561)" aria-label="Z"/></g><path d="M245.871 50.951c-114.9 0-208 93.1-208 208s93.1 208 208 208 208-93.1 208-208-93.1-208-208-208zm0 398.7c-105.1 0-190.7-85.5-190.7-190.7 0-105.2 85.6-190.7 190.7-190.7s190.7 85.6 190.7 190.7-85.6 190.7-190.7 190.7z"/></svg>