<svg width="512" height="512" style="enable-background:new 0 0 512 512" xml:space="preserve" xmlns="http://www.w3.org/2000/svg"><path d="M240 57.652v19.49c-41.838 3.541-81.285 20.926-112.195 49.341-.668.614-1.338 1.242-2.014 1.852l-1.346-17.361 9.117-9.118-18.394-18.47-41.67 41.67 18.414 18.45 9.906-9.904 17.391 1.354c-.914.97-2.046 2.162-2.05 2.172a189.19 189.19 0 0 0-50.378 128.06c0 104.488 84.705 189.19 189.192 189.19 104.486 0 189.189-84.703 189.19-189.19a189.19 189.19 0 0 0-49.655-127.337l-2.844-2.846 17.5-1.36 9.12 9.12 18.47-18.395-41.672-41.672-18.451 18.414 9.906 9.906-1.371 17.633C355.086 99.06 314.852 80.843 272 77.145V57.652zm15.973 36.638c94.384 0 170.898 76.514 170.898 170.898 0 94.386-76.513 170.9-170.898 170.9-94.386.001-170.901-76.514-170.9-170.9 0-94.385 76.515-170.899 170.9-170.898zM248 130.44v104.844c-13.547 3.608-22.983 15.865-23.004 29.885.012 13.88 9.257 26.058 22.623 29.8L256 313.62l8.385-18.661c13.338-3.764 22.553-15.93 22.562-29.79-.004-14.011-9.414-26.276-22.947-29.907V130.44z"/></svg>