<?xml version="1.0" encoding="UTF-8" standalone="no"?>
<svg
   width="512"
   height="512"
   style="enable-background:new 0 0 512 512"
   xml:space="preserve"
   version="1.1"
   id="svg59401"
   sodipodi:docname="ios-units-outline.svg"
   inkscape:version="1.2.2 (b0a8486541, 2022-12-01)"
   xmlns:inkscape="http://www.inkscape.org/namespaces/inkscape"
   xmlns:sodipodi="http://sodipodi.sourceforge.net/DTD/sodipodi-0.dtd"
   xmlns="http://www.w3.org/2000/svg"
   xmlns:svg="http://www.w3.org/2000/svg"><defs
     id="defs59405" /><sodipodi:namedview
     id="namedview59403"
     pagecolor="#ffffff"
     bordercolor="#000000"
     borderopacity="0.25"
     inkscape:showpageshadow="2"
     inkscape:pageopacity="0.0"
     inkscape:pagecheckerboard="0"
     inkscape:deskcolor="#d1d1d1"
     showgrid="false"
     showguides="true"
     inkscape:zoom="0.87508036"
     inkscape:cx="227.40769"
     inkscape:cy="294.25869"
     inkscape:window-width="1920"
     inkscape:window-height="1023"
     inkscape:window-x="0"
     inkscape:window-y="33"
     inkscape:window-maximized="1"
     inkscape:current-layer="svg59401" /><path
     d="M64 144v304h303.9V144H64zm287.9 288H80V160h271.9v272z"
     id="path59397" /><path
     d="M448 64H144v64h16V80h272v272h-48v16h64z"
     id="path59399" /><g
     aria-label="°C"
     transform="rotate(-90)"
     id="text59526"
     style="font-weight:500;font-size:170.667px;line-height:0;font-family:'Noto Sans';-inkscape-font-specification:'Noto Sans Medium';writing-mode:tb-rl;stroke-width:18;paint-order:stroke markers fill;stop-color:#000000"><path
       d="m -294.97527,155.27262 q 0,-12.62936 7.50935,-20.30938 7.50935,-7.68001 19.45604,-7.68001 11.77602,0 19.28537,7.50935 7.68001,7.68001 7.68001,20.48004 0,12.28802 -7.50935,19.96804 -7.50934,7.85068 -19.45603,7.85068 -11.94669,0 -19.45604,-7.85068 -7.50935,-7.68002 -7.50935,-19.96804 z m 11.77602,0.17066 q 0,7.33869 4.09601,11.09336 4.26668,3.92534 11.09336,3.92534 6.99734,0 11.09335,-4.09601 4.26668,-3.92534 4.26668,-10.92269 0,-7.50934 -4.26668,-11.43468 -4.09601,-3.92535 -11.09335,-3.92535 -6.82668,0 -11.09336,3.92535 -4.09601,3.92534 -4.09601,11.43468 z"
       id="path61366" /><path
       d="m -256.91653,260.06208 q 0,-18.26137 -12.62936,-28.50139 -12.45869,-10.24002 -34.30407,-10.24002 -21.67471,0 -34.1334,9.55735 -12.45869,9.55735 -12.45869,29.01339 0,7.85068 1.36534,15.0187 1.536,7.33868 3.92534,14.84803 h -15.87203 q -2.73068,-7.16802 -3.92534,-14.67737 -1.36534,-7.33868 -1.36534,-17.40803 0,-18.77337 7.68001,-31.0614 7.85069,-12.28802 21.84538,-18.43203 14.16536,-6.14402 33.1094,-6.14402 18.43204,0 32.5974,6.65602 14.16536,6.82668 22.01604,19.79737 8.02135,12.97069 8.02135,31.74406 0,9.21602 -2.048,17.92004 -1.87734,8.87468 -5.46135,16.21336 l -15.36003,-6.82668 q 2.73068,-5.97334 4.77868,-12.97069 2.21867,-6.82668 2.21867,-14.50669 z"
       id="path61368" /></g></svg>
