<svg viewBox="0 0 512 512" xmlns="http://www.w3.org/2000/svg" xml:space="preserve" style="fill-rule:evenodd;clip-rule:evenodd;stroke-linejoin:round;stroke-miterlimit:1.41421"><path style="fill:none" d="M0 0h512v512H0z"/><path d="M460.118 233.967c0-100.02-91.461-181.226-204.117-181.226-112.657 0-204.119 81.205-204.119 181.226 0 50.22 23.471 98.186 64.811 132.46l-13.348 80.518 76.5-44.836c24.21 8.644 50.062 13.086 76.156 13.086 112.656 0 204.117-81.205 204.117-181.228z"/><path d="m82.13 442.185 3.375 1.672 2.827 2.487 2.086 3.133 1.205 3.566.24 3.758-.676 10.07 22.562-11.613 3.545-1.272 3.752-.31 3.705.67 3.404 1.608 2.872 2.433 2.146 3.092 1.272 3.545.309 3.75-.67 3.707-1.607 3.403-2.433 2.874-3.094 2.144-25.646 13.2-27.1 13.949-14.07-9.243 2.95-43.94.74-3.69 1.672-3.375 2.486-2.826 3.134-2.086 3.567-1.206 3.756-.24 3.691.74zm108.992-22.177.495.13.497.128.498.129.499.128.497.125.499.127.5.122.498.125.5.12.498.123.5.12.5.118.502.119.5.117.502.117.5.115.502.113.5.113.504.113.502.112.503.109.503.11.503.106.503.108.505.105.503.106.505.103.504.104.505.101.505.1.505.102.505.098.506.097.507.098.505.094.507.096.506.094.507.092.509.092.506.09.507.09.509.088.508.089.509.086.509.086.508.084.509.083.508.082.51.083.51.08.51.079.509.079.51.076.51.077.511.075.512.075.51.072.511.073.513.071.51.07.513.068.512.07.51.066.513.066.512.065.515.065.512.061.513.064.512.059.514.061.513.058.514.057.514.058.515.055.514.054.512.054.515.054.516.051.514.05.514.05.517.048.514.048.514.046.516.046.517.044.514.042.516.042.516.043.516.04.517.038.516.039.516.036.516.036.518.035.516.034.517.033.518.033.516.03.518.029.516.029.518.029.518.026.517.025.518.025.518.023.518.023.518.021.518.021.518.02.518.017.518.017.518.017.519.016.52.013.518.014.518.011.52.012.518.01.518.009.52.007.518.006.52.006.518.006.52.003.518.002.52.002h.023l3.733.495 3.477 1.446 2.983 2.295 2.289 2.989 1.436 3.48.488 3.733-.495 3.73-1.445 3.477-2.294 2.985-2.989 2.29-3.48 1.436-3.733.487h-.059l-.562-.002h-.015l-.564-.002h-.013l-.564-.004h-.013l-.564-.006h-.013l-.564-.006h-.015l-.561-.007h-.016l-.561-.01h-.016l-.561-.01h-.016l-.561-.011h-.015l-.562-.011h-.015l-.562-.014h-.015l-.562-.015h-.015l-.562-.016h-.015l-.562-.017h-.013l-.564-.017h-.013l-.562-.02h-.015l-.562-.02h-.015l-.562-.021h-.013l-.562-.023h-.015l-.562-.023h-.013l-.562-.025h-.015l-.562-.027h-.015l-.56-.027h-.015l-.562-.029h-.013l-.562-.029-.013-.001-.562-.03-.015-.001-.56-.03h-.015l-.56-.033-.015-.002-.56-.033h-.015l-.56-.034-.015-.002-.56-.037h-.015l-.56-.036-.015-.002-.56-.037-.015-.001-.56-.039-.015-.002-.56-.04h-.013l-.56-.042h-.015l-.56-.044h-.015l-.558-.044h-.015l-.56-.046h-.013l-.56-.046-.015-.002-.558-.046-.016-.002-.56-.048-.013-.002-.56-.048-.013-.002-.558-.05-.015-.002-.56-.052h-.015l-.558-.053-.013-.002-.56-.054h-.013l-.558-.055-.016-.002-.557-.056-.016-.002-.558-.055-.013-.002-.558-.058-.015-.002-.558-.06-.013-.001-.355-.039-.203-.02-.013-.003-.558-.06-.016-.003-.556-.063-.015-.002-.556-.063-.015-.002-.556-.065-.015-.002-.556-.065-.016-.002-.556-.067-.015-.002-.556-.068-.013-.001-.556-.07-.015-.001-.556-.071-.014-.002-.556-.071-.015-.002-.556-.073-.013-.002-.556-.075-.014-.002-.556-.074-.013-.002-.556-.077-.015-.002-.554-.077-.014-.001-.554-.08-.015-.001-.554-.079-.015-.002-.554-.08-.016-.004-.552-.08-.015-.002-.554-.083-.013-.004-.555-.082-.015-.002-.552-.086-.015-.002-.552-.086-.016-.002-.552-.089-.015-.001-.552-.089-.016-.002-.552-.09-.013-.002-.552-.09-.015-.002-.553-.092-.013-.002-.552-.094-.015-.001-.553-.094-.013-.002-.552-.096-.014-.002-.55-.096-.015-.004-.552-.096-.014-.004-.55-.097-.015-.002-.55-.1-.016-.004-.55-.1-.013-.003-.55-.102-.016-.002-.548-.103-.016-.002-.548-.104-.015-.004-.549-.103-.015-.004-.548-.105-.015-.004-.549-.108-.013-.002-.549-.109-.015-.002-.548-.11-.014-.003-.548-.11-.015-.003-.547-.111-.015-.004-.548-.113-.014-.002-.546-.113-.015-.004-.547-.115-.015-.004-.547-.115-.013-.004-.547-.117-.015-.004-.546-.117-.014-.003-.546-.12-.013-.003-.547-.12-.013-.003-.547-.123-.013-.003-.547-.123-.013-.002-.545-.125-.015-.003-.544-.125-.014-.004-.544-.125-.014-.003-.544-.127-.014-.004-.544-.128-.016-.004-.542-.128-.015-.004-.543-.13-.014-.005-.542-.132-.015-.004-.107-.025-10.42 5.365-3.545 1.271-3.752.31-3.705-.67-3.404-1.607-2.872-2.433-2.146-3.095-1.272-3.543-.31-3.752.67-3.704 1.608-3.405 2.433-2.873 3.094-2.145 17.662-9.09 5.32-.58 3.099.82zm205.004-29.07 3.514 1.349 3.048 2.21 2.369 2.927 1.533 3.44.59 3.717-.393 3.744-1.349 3.515-2.21 3.046-2.927 2.37-.528.324-.017.01-.611.372-.017.011-.611.37-.02.012-.612.368-.017.01-.613.368-.02.01-.614.366-.017.01-.617.363-.019.012-.617.36-.019.012-.618.36-.02.01-.62.36-.017.01-.622.357-.017.011-.623.355-.019.01-.624.354-.017.01-.627.352-.017.012-.628.35-.017.01-.628.35-.02.009-.627.349-.02.01-.63.345-.018.01-.632.344-.017.01-.634.343-.02.01-.633.341-.017.01-.636.339-.019.01-.636.337-.019.01-.637.335-.02.01-.639.335-.017.01-.641.331-.017.01-.644.332-.017.01-.643.33-.02.007-.642.328-.02.01-.645.325-.019.01-.645.324-.019.01-.647.323-.019.008-.649.322-.019.008-.65.32-.018.01-.651.316-.019.01-.653.316-.019.01-.653.314-.019.008-.654.312-.02.01-.656.31-.017.008-.659.31-.017.008-.658.309-.02.008-.21.097-.45.21-.017.007-.662.305-.017.008-.662.303-.02.007-.662.301-.019.008-.664.299-.019.01-.666.297-.017.007-.668.296-.019.007-.668.296-.017.007-.67.292-.017.007-.67.292-.019.008-.672.29-.019.007-.672.285-.019.008-.673.286-.02.007-.673.284-.019.008-.676.282-.019.007-.675.28-.02.008-.677.278-.019.008-.68.276-.018.007-.68.275-.018.007-.682.273-.019.007-.681.27-.019.008-.683.27-.02.008-.684.267-.02.007-.684.265-.02.008-.686.264-.02.008-.686.26-.02.008-.688.261-.02.006-.69.259-.017.007-.69.257-.02.006-.692.255-.02.008-.692.253-.02.006-.694.25-.019.008-.694.25-.02.007-.696.248-.019.005-.696.246-.02.007-.698.244-.019.006-.698.243-.019.006-.7.24-.02.007-.701.238-.02.008-.701.236-.02.005-.704.236-.019.006-.704.234-.019.006-.704.23-.019.007-.707.228-.02.006-.705.228-.021.006-.708.226-.02.006-.707.223-.02.007-.71.22-.02.006-.711.22-.02.007-.711.218-.019.006-.714.217-.018.005-.716.213-.019.006-.715.213-.02.006-.715.21-.019.006-.717.21-.02.005-.718.205-.02.006-.717.205-.02.006-.72.203-.019.006-.721.201-.019.004-.723.2-.019.005-.723.198-.02.005-.722.194-.021.006-.723.193-.02.006-.726.192-.019.004-.727.19-.019.005-.728.188-.02.004-.726.186-.021.006-.729.182-.019.006-.73.182-.02.004-.73.18-.021.006-.73.178-.022.004-.732.176-.019.004-.734.174-.02.004-.734.173-.019.006-.736.168-.02.006-.736.167-.019.006-.738.164-.019.006-.738.163-.019.006-.74.161-.02.006-.74.159-.018.004-.203.044-3.754.3-3.703-.682-3.399-1.616-2.865-2.44-2.137-3.101-1.26-3.547-.302-3.754.681-3.703 1.617-3.399 2.443-2.866 3.099-2.136 3.547-1.262.174-.036.682-.148.679-.15.68-.15.677-.154.677-.154.678-.157.676-.16.675-.158.674-.163.674-.163.671-.165.672-.169.672-.168.67-.171.668-.173.668-.174.668-.177.666-.176.666-.18.664-.182.663-.182.664-.186.66-.186.663-.188.66-.19.659-.192.658-.194.657-.195.657-.198.654-.197.655-.201.655-.202.65-.203.654-.207.65-.207.65-.21.649-.208.649-.213.647-.215.645-.214.645-.219.644-.218.643-.221.641-.222.642-.225.641-.224.638-.228.64-.228.635-.232.638-.232.634-.234.635-.236.632-.236.632-.24.632-.24.63-.243.629-.243.628-.246.628-.247.626-.247.625-.252.624-.25.622-.254.623-.255.62-.257.62-.259.618-.258.618-.263.617-.263.615-.264.615-.267.613-.268.613-.269.611-.27.61-.274.608-.272.61-.277.605-.278.607-.278.422-.195.182-.084.603-.282.604-.284.601-.286.6-.285.6-.29.598-.29.595-.289.596-.293.594-.294.594-.297.593-.297.592-.297.59-.301.588-.301.588-.303.587-.305.584-.307.585-.309.583-.308.582-.31.58-.313.58-.313.578-.316.577-.317.577-.318.575-.32.574-.32.57-.322.572-.324.571-.326.568-.326.567-.328.568-.33.565-.332.564-.333.561-.334.562-.335.56-.338.56-.337.558-.34.5-.308 3.44-1.532 3.717-.589 3.745.391zM45.744 312.445l3.471 1.46 2.974 2.31 2.274 2.998.19.334.297.517.3.518.3.518.304.516.303.515.308.514.307.514.31.514.31.512.316.512.315.51.317.51.317.51.32.508.323.508.325.508.324.506.328.506.33.505.33.504.333.502.336.504.336.5.338.501.34.5.34.501.344.499.344.496.347.499.35.494.349.497.353.495.353.492.356.493.357.493.359.49.36.492.363.488.364.49.365.488.368.487.37.485.37.485.374.486.374.483.375.483.378.481.38.481.381.48.383.479.386.48.387.477.387.475.39.476.392.475.393.474.396.473.397.472.398.472.399.47.402.467.405.47.404.466.408.468.408.464.41.466.413.462.414.464.414.462.417.46.42.46.421.458.421.459.424.456.427.456.427.455.429.454.43.453.431.452.435.45.436.45.437.45.438.447.442.446.442.447.445.445.444.443.448.443.45.443.45.44.453.44.453.439.456.437.457.437.46.435.459.435.463.434.463.431 2.877 2.665 2.412 6.069-1.619 24.106-.74 3.69-1.67 3.375-2.488 2.826-3.133 2.086-3.566 1.205-3.758.24-3.691-.74-3.374-1.67-2.826-2.488-2.088-3.133-1.203-3.568-.241-3.756.947-14.096-.144-.142-.015-.015-.498-.487-.015-.017-.374-.37-.12-.117-.014-.016-.492-.49-.017-.016-.49-.49-.015-.016-.488-.493-.015-.015-.487-.495-.016-.015-.484-.495-.015-.015-.484-.497L63.7 379l-.482-.497-.015-.015-.478-.498-.015-.016-.479-.5-.015-.016-.476-.5-.015-.017-.475-.5-.013-.016-.473-.504-.015-.016-.47-.504-.016-.015-.468-.506-.016-.016-.467-.506-.015-.017-.465-.506-.015-.018-.463-.508-.015-.017-.461-.508-.014-.017-.46-.51-.014-.017-.46-.512-.013-.016-.457-.514-.013-.017-.456-.514-.013-.015-.453-.516-.014-.017-.451-.516-.014-.017-.45-.518-.013-.015-.448-.52-.015-.017-.444-.52-.015-.015-.442-.521-.015-.018-.44-.521-.016-.017-.438-.522-.016-.017-.438-.525-.013-.016-.437-.525-.013-.017-.435-.528-.013-.017-.433-.525-.013-.018-.43-.529-.014-.017-.429-.53-.015-.016-.427-.53-.013-.017-.425-.533-.014-.017-.423-.531-.013-.017-.421-.535-.014-.018-.42-.535-.012-.017-.418-.535-.015-.017-.414-.537-.015-.017-.414-.539-.013-.017-.412-.539-.013-.017-.41-.539-.013-.02-.408-.54-.014-.017-.406-.54-.013-.02-.404-.543-.014-.017-.402-.544-.013-.018-.4-.544-.014-.017-.398-.547-.014-.019-.396-.546-.014-.018-.394-.548-.014-.017-.392-.549-.014-.019-.39-.548-.014-.02-.389-.55-.013-.019-.387-.55-.014-.02-.385-.551-.013-.02-.384-.552-.013-.019-.381-.554-.012-.02-.38-.553-.013-.02-.377-.555-.014-.02-.375-.556-.014-.019-.373-.558-.012-.019-.372-.56-.013-.017-.37-.56-.013-.02-.369-.56-.011-.02-.366-.562-.014-.019-.364-.562-.011-.019-.363-.564-.013-.019-.36-.565-.012-.02-.359-.565-.013-.017-.357-.568-.011-.02-.355-.567-.011-.019-.353-.567-.014-.02-.349-.569-.013-.02-.35-.569-.01-.019-.348-.571-.011-.02-.346-.573-.011-.019-.344-.571-.011-.021-.342-.574-.011-.019-.34-.573-.011-.021-.338-.575-.011-.02-.336-.575-.012-.02-.334-.578-.011-.019-.33-.577-.012-.021-.207-.363-1.421-3.485-.469-3.735.513-3.731 1.46-3.469 2.309-2.974 3-2.275 3.486-1.421 3.735-.47 3.73.514zm443.141-29.32 3.337 1.747 2.769 2.55 2.015 3.18 1.123 3.594.154 3.762-.823 3.673-.097.261-.008.023-.237.639-.008.023-.239.638-.01.023-.24.637-.01.023-.243.636-.007.023-.247.637-.008.023-.248.632-.008.023-.25.635-.01.023-.252.633-.008.023-.254.63-.01.024-.256.63-.01.023-.257.63-.01.022-.26.63-.01.022-.261.629-.01.021-.263.627-.01.023-.268.627-.01.021-.267.625-.01.023-.27.625-.01.021-.273.625-.01.021-.275.624-.01.02-.277.622-.009.023-.28.621-.01.021-.281.62-.01.023-.283.617-.01.023-.286.617-.01.023-.288.616-.009.023-.29.615-.01.021-.292.616-.01.02-.294.614-.011.023-.294.612-.012.023-.298.612-.01.02-.299.612-.011.021-.302.61-.01.021-.303.61-.012.021-.305.608-.012.021-.307.608-.011.02-.31.607-.011.02-.311.607-.012.02-.313.605-.011.02-.315.603-.012.02-.318.603-.012.021-.319.602-.011.02-.323.6-.011.02-.323.6-.011.022-.17.31-.157.286-.01.021-.327.596-.014.021-.328.597-.011.02-.332.595-.012.021-.334.595-.011.019-.336.594-.012.02-.337.592-.012.019-.34.59-.01.022-.342.588-.014.021-.343.589-.012.021-.345.587-.011.02-.348.586-.013.02-.35.586-.01.02-.352.583-.011.022-.353.582-.013.02-.355.582-.012.02-.358.58-.012.022-.358.579-.014.02-.36.58-.012.019-.362.577-.013.02-.365.576-.013.02-.366.577-.012.019-.37.575-.011.02-.37.572-.013.02-.372.571-.014.021-.374.571-.013.02-.376.57-.013.018-.377.57-.012.019-.381.567-.012.02-.383.567-.011.017-.384.566-.013.02-.385.565-.014.019-.387.562-.013.019-.39.562-.012.019-.391.562-.014.019-.392.56-.014.017-.394.56-.014.019-.396.558-.014.017-.396.558-.014.017-.4.556-.013.02-.403.554-.013.017-.404.554-.013.017-.407.552-.013.018-.406.552-.015.017-.408.55-.013.018-.412.548-.014.02-.413.546-.014.019-.413.544-.015.02-.416.544-.013.017-.42.545-.013.017-.42.543-.015.017-.421.542-.013.018-.423.54-.016.018-.425.538-.013.018-.427.538-.015.018-.43.537-.012.017-.431.535-.013.017-.433.535-.015.017-.433.533-.015.016-.435.533-.015.017-.438.529-.014.017-.44.53-.013.017-.442.529-.014.017-.444.525-.013.018-.444.525-.015.017-.446.526-.015.015-.448.523-.016.018-.45.521-.013.017-.451.52-.015.017-.454.52-.013.015-.456.52-.015.015-.455.518-.016.015-.457.516-.015.017-.461.514-.014.017-.463.512-.013.018-.465.511-.013.016-.467.51-.013.017-.467.51-.015.015-.47.508-.014.016-.47.508-.014.015-.473.504-.015.018-.473.504-.015.015-.476.503-.015.015-.477.502-.015.016-.478.5-.015.015-.48.499-.015.017-.483.497-.015.015-.25.257-2.957 2.332-3.458 1.485-3.725.541-3.74-.443-3.496-1.394-3.018-2.253-2.33-2.956-1.486-3.459-.541-3.725.442-3.739 1.395-3.497 2.253-3.016.227-.236.437-.45.434-.451.435-.453.43-.454.432-.456.429-.457.427-.456.425-.458.423-.46.423-.46.421-.463.42-.464.417-.464.416-.464.414-.465.413-.468.412-.468.408-.47.408-.47.408-.471.404-.474.405-.473.4-.474.4-.477.4-.476.396-.477.394-.48.395-.48.391-.48.391-.483.387-.484.387-.483.386-.485.385-.487.381-.487.38-.487.38-.49.377-.49.374-.49.374-.493.372-.493.372-.495.368-.494.366-.497.366-.496.365-.499.36-.498.361-.5.359-.503.356-.5.355-.505.355-.504.351-.504.35-.507.349-.506.347-.508.343-.508.344-.51.342-.51.34-.512.337-.514.338-.512.334-.513.332-.516.332-.516.328-.518.329-.517.324-.52.325-.52.322-.521.321-.522.319-.521.317-.523.315-.526.313-.525.311-.525.312-.528.307-.527.306-.53.305-.528.302-.531.302-.532.298-.533.297-.533.297-.533.294-.535.138-.255.152-.28.29-.536.289-.54.286-.536.285-.539.283-.54.28-.541.28-.54.277-.543.275-.545.275-.542.272-.545.269-.546.268-.547.267-.546.264-.549.262-.55.262-.548.258-.552.256-.55.256-.553.253-.552.25-.554.25-.554.247-.556.247-.556.243-.556.241-.558.241-.558.237-.56.237-.56.234-.56.231-.562.232-.561.228-.564.227-.564.224-.563.222-.566.222-.566.219-.567.216-.568.216-.567.213-.57.21-.57.084-.227 1.748-3.335 2.549-2.77 3.18-2.015 3.595-1.122 3.761-.155 3.672.824zM25.326 173.028l3.509 1.367 3.035 2.228 2.353 2.937 1.514 3.448.571 3.721-.413 3.743-.05.2-.142.592-.142.594-.139.594-.136.595-.135.594-.133.596-.131.599-.129.596-.127.598-.125.598-.124.6-.12.599-.119.602-.116.6-.114.602-.111.602-.11.602-.109.604-.106.604-.104.606-.103.604-.099.606-.096.607-.097.606-.093.608-.091.608-.09.61-.087.61-.083.609-.084.61-.08.611-.077.612-.078.612-.074.613-.07.614-.07.613-.069.616-.064.613-.065.618-.06.615-.06.617-.056.618-.053.617-.054.617-.049.62-.05.62-.045.62-.043.62-.042.62-.038.624-.038.621-.034.623-.033.623-.03.624-.028.625-.025.625-.025.625-.02.625-.02.627-.017.627-.015.627-.013.628-.01.63-.007.628-.006.63-.004.63v1.216l.004.586.004.587.007.587.01.584.011.587.012.585.015.587.017.584.019.585.02.585.024.585.024.583.029.584.028.585.03.583.033.583.036.583.036.583.04.582.04.583.043.583.044.581.047.583.048.581.051.58.053.582.053.58.057.582.06.579.06.579.06.58.065.58.067.579.068.579.07.577.072.579.074.577.076.58.078.576.08.577.081.576.084.577.087.575.087.577.09.575.09.575.094.574.095.575.098.573.099.575.1.574.105.571.104.573.106.574.109.57.112.572.112.572.113.571.118.57.118.57.121.57.122.57.123.57.127.567.069.303.34 3.75-.642 3.71-1.581 3.417-2.41 2.89-3.077 2.171-3.533 1.298-3.75.342-3.71-.643-3.416-1.58-2.893-2.412-2.169-3.077-1.3-3.532-.076-.339-.005-.023-.14-.64-.006-.023-.139-.639-.006-.025-.138-.64-.004-.023-.135-.64-.005-.024-.133-.642-.006-.023-.131-.64-.004-.025-.129-.642-.006-.023-.125-.643-.005-.023-.124-.642-.006-.025-.121-.642-.004-.025-.121-.643-.004-.024-.118-.645-.005-.023-.116-.644-.004-.025-.114-.644-.004-.023-.112-.646-.003-.025-.11-.644-.004-.025-.106-.646-.004-.023-.107-.647-.003-.024-.103-.647-.004-.025-.1-.646-.004-.025-.099-.648-.003-.023-.095-.648-.004-.025-.095-.648-.004-.025-.091-.648-.004-.025-.089-.648-.004-.025-.087-.648-.004-.025-.085-.65-.004-.024-.084-.65-.001-.023-.082-.652-.002-.023-.08-.652-.003-.023-.076-.652-.002-.025-.076-.652-.002-.023-.072-.652-.004-.025-.07-.652-.002-.025-.068-.651-.002-.025-.067-.654-.002-.023-.064-.654-.002-.025-.06-.654-.003-.023-.059-.654-.003-.024-.057-.654-.002-.025-.053-.654-.004-.025-.051-.656-.002-.023-.051-.655-.002-.025-.048-.656-.002-.023-.045-.656-.002-.025-.008-.115-.036-.54-.002-.025-.041-.656v-.025l-.04-.658-.002-.023-.036-.657-.002-.025-.034-.656-.002-.025-.032-.658-.002-.024-.03-.658v-.023l-.03-.66-.001-.023-.025-.66-.002-.022-.022-.66v-.025l-.023-.657v-.025l-.02-.66-.001-.023-.015-.66-.002-.024-.013-.66-.002-.025-.012-.66v-.022l-.011-.66v-.025l-.008-.66v-.024l-.005-.662v-.023l-.004-.661v-.025l-.002-.66v-.027l.002-.707v-.025l.004-.708v-.026l.005-.708.002-.025.008-.707v-.027l.011-.706.002-.025.013-.707v-.025l.017-.706v-.025l.02-.705.001-.025.021-.706.002-.025.023-.703.002-.027.026-.702v-.027l.03-.701v-.027l.033-.702.002-.025.032-.702.002-.026.036-.7.002-.027.04-.7.002-.027.04-.7.001-.025.044-.7.002-.024.047-.698.002-.027.05-.698.002-.025.05-.698.003-.027.053-.696.002-.026.057-.696.002-.025.058-.696.002-.025.063-.696.002-.025.064-.696.002-.025.067-.694.002-.025.068-.694.004-.025.07-.694.002-.025.074-.692.004-.025.076-.692.001-.025.08-.692.002-.025.082-.69.002-.025.083-.69.004-.026.085-.69.004-.025.087-.688.004-.025.091-.688.004-.025.091-.687.004-.026.097-.687.002-.025.098-.686.004-.025.1-.685.004-.025.103-.684.004-.027.104-.682.004-.025.108-.685.004-.025.11-.682.004-.025.112-.68.004-.028.113-.68.006-.025.116-.681.006-.025.117-.679.006-.026.121-.68.004-.024.124-.679.005-.025.125-.677.006-.025.13-.676.003-.025.13-.677.007-.025.132-.675.006-.025.135-.675.006-.025.138-.675.004-.024.14-.673.006-.025.142-.673.006-.025.144-.671.006-.025.148-.671.006-.025.15-.671.005-.025.152-.67.006-.024.154-.67.005-.024.156-.668.006-.025.159-.667.006-.025.161-.667.006-.023.059-.238 1.366-3.508 2.228-3.034 2.938-2.354 3.448-1.515 3.72-.57 3.742.413zm473.196 16.508 3.3 1.812 2.72 2.604 1.951 3.219 1.051 3.614.086.556.004.027.104.684.004.025.098.685.004.025.099.686.004.025.095.687.003.026.093.687.002.025.091.688.004.025.087.688.004.025.086.69.003.025.084.69.002.025.081.69.004.028.078.69.002.025.076.692.004.025.074.692.002.025.072.694.002.025.068.694.004.025.064.694.004.025.063.696.003.025.061.694.002.027.059.696.002.025.057.696.002.026.053.696.002.027.053.698.002.025.047.698.002.027.047.698.002.025.044.7.002.024.042.7v.027l.04.7.001.027.036.7.002.026.035.7v.027l.032.702.002.027.028.701v.027l.027.702.002.027.024.703v.025l.021.706.002.025.019.704v.026l.017.706v.025l.013.705.002.027.012.706v.027l.01.707v.025l.005.708v.026l.004.708v.025l.002.696-.004.025.004.027-.002.696v.025l-.004.707v.027l-.006.707v.025l-.01.708v.025l-.01.707-.003.025-.013.706v.027l-.017.705v.025l-.019.706-.002.025-.02.703v.027l-.025.704-.002.025-.027.703v.027l-.028.702-.002.025-.023.496-.659 3.708-1.596 3.41-2.423 2.881-3.086 2.155-3.54 1.283-3.751.324-3.706-.66-3.41-1.595-2.882-2.423-2.154-3.087-1.282-3.54-.325-3.75.02-.458.027-.625.023-.625.021-.627.02-.625.016-.627.015-.629.014-.627.01-.629.007-.629.005-.629.004-.63.002-.631-.002-.63-.004-.63-.005-.629-.008-.629-.01-.629-.013-.628-.015-.627-.017-.627-.019-.627-.02-.625-.024-.625-.026-.625-.029-.625-.03-.624-.032-.623-.034-.623-.038-.621-.038-.623-.042-.621-.044-.62-.045-.62-.048-.62-.05-.62-.052-.617-.055-.617-.057-.618-.059-.617-.06-.615-.065-.618-.065-.613-.068-.616-.068-.613-.072-.614-.074-.612-.076-.613-.08-.612-.08-.611-.083-.61-.084-.61-.087-.61-.09-.61-.09-.607-.08-.518-.08-3.763.896-3.657 1.812-3.3 2.604-2.718 3.219-1.952 3.615-1.053 3.763-.08 3.657.897zm-72.83-123.218 3.578 1.171 3.153 2.057.248.213.015.014.53.456.015.015.53.459.015.013.525.46.017.014.524.462.017.013.522.462.017.016.522.464.015.013.52.466.017.013.519.466.015.016.518.467.015.016.516.467.015.016.515.47.015.015.512.472.015.015.511.473.017.014.509.475.015.016.508.475.016.016.506.477.016.015.504.48.016.013.502.481.016.016.5.48.016.016.5.483.016.014.497.485.015.015.498.485.015.016.495.487.015.015.494.489.015.015.491.49.016.015.49.49.014.016.488.492.015.016.488.493.015.015.486.496.015.016.482.496.015.016.483.496.015.016.48.5.015.015.478.5.015.016.477.5.015.018.476.502.015.016.473.504.015.015.473.506.013.016.47.508.016.015.469.508.015.015.467.51.013.016.467.512.013.015.465.512.013.015.463.514.014.017.46.514.016.016.457.515.016.018.455.515.015.018.456.517.015.018.452.52.015.016.451.52.014.017.45.522.015.017.448.522.015.017.446.525.015.016.444.527.013.015.444.527.014.018.442.527.013.017.44.53.014.017.438.53.015.018.435.531.015.017.433.533.015.018.433.535.013.017.43.535.014.017.429.537.015.017.427.539.013.017.425.539.016.017.423.54.013.018.421.54.016.02.419.543.013.017.42.542.013.02.416.544.015.017.413.547.014.017.413.548.014.018.412.548.013.02.408.55.015.017.406.55.013.02.407.551.013.018.404.554.013.017.403.554.013.02.4.555.014.017.398.556.013.02.395.558.014.019.394.558.014.019.392.56.014.019.39.56.014.019.389.564.013.017.387.564.014.019.385.563.013.02.384.565.013.02.381.567.012.02.381.567.012.019.38.57.01.018.376.57.013.019.374.571.014.02.372.573.013.019.37.573.011.02.37.575.012.019.366.575.013.02.365.576.013.021.362.578.012.019.36.579.014.019.358.58.012.02.358.581.012.021.355.581.013.021.353.583.011.02.352.584.01.02.35.586.013.019.348.587.011.02.345.587.012.022.343.588.014.02.341.59.012.02.34.59.01.02.338.593.012.02.336.592.011.02.334.595.012.021.332.595.011.02.328.595.014.021.326.598.011.02.327.598.011.02.323.6.011.02.323.6.011.021.32.602.01.022.32.602.01.02.316.603.011.02.313.605.012.02.31.607.012.02.31.607.011.02.307.609.012.02.305.608.012.022.303.61.01.02.302.61.011.021.188.384 1.203 3.566.237 3.758-.742 3.69-1.672 3.373-2.488 2.826-3.135 2.084-3.568 1.204-3.757.238-3.691-.742-3.373-1.672-2.826-2.488-2.083-3.135-.173-.351-.27-.546-.27-.545-.276-.545-.275-.542-.277-.543-.28-.54-.28-.541-.283-.54-.285-.54-.286-.538-.289-.537-.29-.537-.29-.535-.294-.535-.297-.535-.297-.533-.298-.53-.302-.532-.302-.531-.305-.53-.306-.528-.307-.528-.312-.527-.31-.527-.314-.524-.315-.525-.317-.523-.319-.524-.32-.521-.323-.52-.325-.52-.324-.52-.329-.517-.328-.518-.332-.515-.332-.516-.334-.514-.338-.514-.338-.512-.34-.512-.341-.51-.344-.51-.343-.508-.347-.508-.35-.508-.349-.504-.35-.506-.356-.503-.355-.504-.356-.502-.359-.5-.36-.501-.361-.499-.365-.498-.366-.497-.366-.496-.368-.495-.372-.495-.372-.492-.374-.493-.374-.49-.378-.492-.38-.489-.379-.487-.381-.487-.385-.487-.386-.485-.387-.485-.387-.481-.39-.483-.394-.481-.393-.48-.394-.48-.397-.477-.398-.477-.4-.475-.403-.474-.403-.474-.404-.473-.408-.472-.408-.47-.408-.47-.412-.467-.413-.468-.414-.466-.416-.466-.26-.287-.157-.177-.42-.462-.42-.462-.424-.46-.423-.46-.425-.459-.427-.458-.43-.456-.43-.454-.43-.455-.434-.452-.436-.453-.437-.45-.436-.45-.44-.448-.44-.446-.443-.447-.444-.445-.446-.445-.448-.44-.448-.444-.45-.439-.451-.44-.454-.438-.455-.437-.456-.435-.457-.436-.46-.433-.46-.431-.462-.432-.463-.43-.465-.429-.466-.427-.47-.426-.468-.425-.472-.424-.471-.422-.475-.422-.476-.42-.476-.42-.478-.416-.48-.418-.48-.414-.225-.191-2.512-2.804-1.7-3.359-.775-3.685.205-3.758 1.17-3.578 2.058-3.154 2.805-2.511 3.357-1.703 3.686-.772 3.757.205zM103.77 56.075l3.62 1.03 3.23 1.933 2.622 2.703 1.833 3.288.918 3.65-.058 3.766-1.031 3.62-1.932 3.231-2.704 2.621-.162.12-.514.386-.512.386-.513.387-.51.39-.51.388-.507.391-.507.393-.505.395-.505.395-.503.397-.5.397-.5.399-.497.4-.497.401-.495.403-.494.405-.493.406-.492.407-.49.406-.487.41-.488.41-.484.411-.484.414-.484.414-.48.414-.48.418-.478.416-.477.42-.476.42-.472.422-.473.422-.47.424-.471.425-.467.426-.467.427-.465.43-.465.43-.461.43-.461.432-.46.433-.457.436-.455.435-.456.437-.453.44-.452.438-.45.44-.448.442-.448.441-.444.445-.444.445-.444.447-.44.446-.44.449-.437.449-.436.45-.435.453-.435.452-.43.455-.431.454-.43.456-.426.458-.425.459-.423.46-.424.46-.42.462-.418.462-.418.464-.417.466-.414.466-.414.468-.41.468-.41.47-.408.47-.406.47-.406.474-.402.474-.403.474-.4.475-.399.477-.396.478-.395.48-.393.479-.393.48-.389.484-.389.483-.098.12-.289.363-.385.485-.383.487-.384.487-.38.487-.379.49-.376.49-.375.49-.374.494-.372.492-.37.495-.37.495-.367.496-.366.497-.362.498-.363.499-.36.5-.36.5-.356.503-.355.504-.353.503-.353.506-.349.506-.35.506-.345.508-.345.508-.344.51-.341.51-.34.512-.338.512-.336.514-.335.514-.333.516-.33.515-.33.518-.326.518-.327.52-.324.519-.323.52-.32.521-.32.524-.316.523-.315.523-.29.487-2.335 2.953-3.02 2.25-3.497 1.39-3.74.436-3.726-.544-3.456-1.492-2.955-2.333-2.247-3.02-1.39-3.5-.437-3.738.544-3.725 1.492-3.457.308-.516.011-.021.351-.585.013-.019.353-.583.012-.021.355-.58.013-.022.357-.581.011-.02.359-.58.013-.02.36-.578.012-.02.364-.577.012-.02.364-.578.013-.019.367-.575.013-.02.368-.575.012-.019.371-.573.012-.02.372-.572.013-.02.374-.571.013-.02.376-.569.013-.019.378-.57.013-.018.38-.568.011-.02.384-.567.01-.019.386-.565.012-.02.385-.563.013-.02.387-.563.014-.02.389-.561.013-.02.39-.56.014-.018.393-.56.013-.02.395-.557.013-.02.397-.557.013-.018.399-.558.013-.017.399-.556.013-.019.402-.554.013-.017.405-.554.013-.018.406-.552.013-.02.408-.55.014-.019.408-.548.015-.019.41-.548.013-.018.414-.546.013-.02.416-.546.013-.017.416-.544.013-.02.42-.542.013-.017.419-.543.015-.02.421-.54.014-.017.425-.54.013-.018.425-.539.014-.017.427-.539.015-.017.309-.39.12-.147.013-.017.43-.535.014-.017.433-.535.015-.018.434-.533.014-.017.436-.531.013-.017.439-.531.013-.018.44-.529.014-.017.442-.527.013-.018.444-.527.014-.015.446-.527.013-.016.446-.525.015-.017.448-.522.015-.017.45-.522.013-.017.452-.521.015-.016.454-.52.013-.017.455-.517.015-.018.456-.515.015-.018.46-.515.013-.016.46-.514.016-.017.461-.514.015-.015.463-.512.016-.015.465-.512.015-.015.467-.51.013-.016.469-.508.015-.015.47-.508.016-.016.47-.506.015-.015.475-.504.015-.016.475-.502.015-.017.476-.5.015-.016.478-.5.016-.016.48-.5.015-.016.482-.496.015-.016.484-.496.015-.016.484-.496.015-.015.488-.493.015-.016.488-.492.015-.016.49-.49.015-.016.492-.489.015-.015.493-.489.015-.015.496-.487.015-.016.497-.485.015-.015.497-.485.018-.015.499-.482.015-.015.5-.481.016-.016.503-.48.017-.014.503-.48.017-.015.505-.477.015-.016.509-.475.015-.016.51-.475.016-.014.51-.473.015-.015.513-.472.015-.015.514-.47.017-.016.514-.467.018-.016.516-.467.015-.016.52-.466.015-.013.52-.466.015-.013.522-.464.017-.016.522-.462.017-.013.524-.462.017-.014.526-.46.017-.013.527-.459.016-.015.53-.456.016-.014.53-.456.017-.013.531-.455.017-.013.533-.453.018-.013.535-.453.015-.013.537-.449.017-.013.539-.449.015-.013.541-.449.015-.013.543-.445.015-.014.543-.444.017-.014.545-.44.017-.014.544-.443.018-.014.546-.439.017-.013.549-.437.017-.014.55-.437.017-.013.552-.435.016-.014.554-.433.017-.014.554-.433.017-.013.556-.43.015-.013.558-.43.017-.013.56-.428.017-.013.56-.428.017-.011.562-.426.017-.013.564-.424.015-.011.565-.422.017-.014.186-.138 3.291-1.833 3.65-.918 3.765.06zM294.807 8.823l.345.048.02.002.762.107.02.002.76.108.021.003.76.11.02.003.76.112.018.004.76.113.02.003.757.117.02.002.757.12.02.001.756.12.02.005.756.122.019.002.755.125.02.004.755.126.019.004.753.129.019.002.753.13.02.004.75.132.022.004.75.134.02.004.75.136.019.004.75.138.018.004.75.142.02.002.747.143.019.004.747.144.02.004.745.148.02.003.745.148.02.004.743.151.02.004.743.152.02.003.743.156.019.004.742.157.019.004.742.157.019.006.74.159.019.004.74.163.019.003.738.165.02.004.737.167.02.004.736.168.019.004.736.171.02.006.734.17.02.006.733.175.019.003.732.177.021.004.731.178.02.006.732.178.018.006.731.182.02.004.728.184.02.006.728.186.02.003.727.188.02.006.726.19.02.004.724.191.021.006.723.194.02.004.724.195.019.006.723.197.019.006.723.198.019.005.721.202.02.006.718.203.02.006.719.203.019.005.719.208.019.005.717.21.02.005.715.211.019.006.715.21.019.006.716.215.018.006.714.217.019.005.712.219.019.006.711.218.02.006.71.222.018.006.71.224.019.006.708.226.02.006.707.226.019.008.705.228.021.006.704.232.02.006.703.234.02.005.704.234.019.008.702.236.019.007.702.238.019.006.7.242.02.005.697.242.02.008.698.243.019.006.696.247.02.006.696.247.019.008.694.25.02.005.694.251.019.008.693.253.019.008.692.253.02.007.69.257.019.008.689.257.019.007.689.261.019.008.687.26.019.008.687.265.019.006.685.266.019.008.685.266.019.008.683.268.017.008.683.272.02.006.68.274.02.008.679.274.019.008.68.276.018.008.678.278.019.007.675.28.02.008.675.282.019.007.674.284.019.008.673.284.02.007.671.288.02.007.671.29.017.008.672.29.017.009.67.291.019.008.666.293.019.01.668.295.017.008.666.297.02.008.663.299.02.01.662.298.019.01.662.303.017.008.662.304.017.008.66.307.02.008.658.306.017.01.659.309.017.01.657.31.019.01.654.312.02.008.652.314.02.01.652.316.019.008.651.318.019.01.649.318.019.01.649.321.019.008.647.324.02.008.644.326.02.007.6.305 3.111 2.123 2.454 2.853 1.632 3.393.699 3.699-.283 3.754-1.245 3.555-2.122 3.108-2.854 2.456-3.391 1.631-3.701.698-3.754-.282-3.552-1.244-.575-.291-.593-.297-.594-.296-.594-.293-.596-.293-.595-.292-.598-.29-.6-.287-.6-.286-.601-.285-.604-.284-.603-.282-.604-.28-.607-.278-.605-.278-.61-.276-.609-.274-.609-.272-.611-.27-.613-.271-.613-.267-.615-.266-.615-.265-.617-.262-.618-.263-.619-.259-.619-.259-.62-.257-.623-.255-.622-.253-.624-.25-.625-.252-.626-.25-.628-.245-.628-.245-.629-.246-.63-.241-.632-.24-.632-.24-.633-.237-.634-.234-.634-.234-.638-.234-.636-.23-.64-.228-.637-.228-.641-.227-.642-.222-.641-.222-.643-.221-.644-.22-.645-.217-.647-.215-.645-.215-.65-.212-.649-.211-.649-.21-.65-.206-.653-.206-.651-.203-.655-.201-.655-.201-.654-.2-.657-.195-.657-.196-.658-.194-.659-.191-.66-.19-.663-.188-.66-.188-.664-.184-.663-.184-.664-.18-.666-.18-.666-.179-.668-.174-.668-.175-.668-.172-.67-.171-.672-.17-.34-.085-.332-.082-.671-.165-.674-.165-.674-.161-.675-.161-.676-.158-.676-.157-.677-.155-.68-.152-.679-.151-.68-.15-.68-.147-.682-.146-.683-.144-.683-.142-.684-.141-.685-.139-.687-.136-.687-.134-.687-.134-.687-.13-.689-.13-.69-.127-.691-.127-.69-.123-.694-.122-.692-.121-.695-.117-.693-.117-.696-.115-.697-.113-.696-.11-.697-.109-.698-.107-.698-.106-.7-.103-.7-.102-.703-.1-.702-.095-.313-.044-3.633-.992-3.252-1.896-2.65-2.675-1.867-3.269-.959-3.64.017-3.764.991-3.632 1.898-3.253 2.674-2.65 3.268-1.868 3.642-.956 3.763.015zm-56.848-1.597 3.58 1.17 3.153 2.057 2.513 2.801 1.704 3.357.776 3.685-.203 3.758-1.169 3.58-2.057 3.154-2.801 2.513-3.357 1.703-3.684.777-.736.057-.717.058-.716.059-.715.06-.714.063-.715.065-.712.067-.714.069-.711.071-.712.073-.71.075-.71.076-.71.079-.707.08-.708.083-.708.084-.706.087-.706.088-.704.09-.704.092-.704.094-.702.096-.702.096-.7.1-.703.1-.698.104-.7.106-.699.107-.696.11-.697.109-.696.113-.695.115-.695.117-.694.117-.693.12-.693.123-.69.123-.691.127-.69.126-.688.13-.689.13-.687.135-.687.134-.685.136-.685.139-.685.141-.683.142-.684.144-.68.146-.682.147-.68.15-.679.151-.677.152-.678.155-.677.157-.676.158-.676.16-.673.162-.674.165-.672.165-.672.166-.67.171-.67.17-.67.173-.668.175-.668.174-.666.178-.664.18-.666.18-.662.185-.663.184-.662.188-.662.188-.659.19-.66.191-.657.194-.658.196-.507.151-.15.044-.655.2-.655.2-.652.202-.653.203-.653.206-.651.207-.649.209-.649.21-.647.213-.647.215-.647.215-.646.217-.643.22-.643.22-.642.223-.641.222-.64.227-.64.228-.637.228-.638.23-.635.234-.636.234-.634.234-.634.237-.632.24-.632.24-.63.241-.628.246-.628.245-.628.246-.625.249-.626.251-.624.251-.623.253-.622.255-.621.257-.619.26-.618.258-.619.263-.594.253-3.625 1.012-3.765.04-3.646-.937-3.28-1.847-2.69-2.634-1.917-3.24-1.013-3.626-.04-3.766.937-3.646 1.847-3.28 2.634-2.69 3.242-1.916.62-.267.02-.007.673-.284.019-.008.673-.284.02-.007.675-.282.02-.008.677-.28.017-.007.68-.278.016-.008.68-.276.019-.008.68-.274.018-.008.681-.274.02-.006.682-.272.02-.008.683-.268.019-.008.683-.266.019-.008.685-.266.019-.006.687-.265.019-.007.687-.261.019-.008.689-.26.019-.008.69-.257.02-.008.69-.257.02-.007.69-.253.019-.008.693-.253.019-.008.694-.251.02-.006.694-.25.019-.007.696-.247.02-.006.696-.247.019-.006.698-.243.019-.008.7-.242.02-.005.7-.242.019-.006.7-.238.019-.007.702-.236.019-.008.704-.234.019-.005.704-.234.019-.006.706-.232.019-.006.706-.228.019-.008.708-.226.019-.006.708-.226.019-.006.71-.224.018-.006.71-.222.02-.006.71-.218.02-.006.711-.219.021-.005.712-.217.02-.006.177-.054.537-.16.02-.006.715-.211.019-.006.715-.21.02-.007.717-.209.019-.005.719-.208.019-.005.72-.203.018-.006.72-.203.02-.006.72-.202.02-.005.722-.198.019-.006.723-.197.019-.006.723-.195.02-.004.725-.194.02-.006.724-.191.02-.004.726-.19.02-.006.728-.188.019-.003.729-.186.019-.006.728-.184.02-.004.73-.182.019-.006.73-.178.021-.006.731-.178.021-.004.733-.177.019-.003.734-.175.019-.006.734-.17.02-.006.736-.17.019-.005.736-.168.02-.004.737-.167.02-.004.737-.165.021-.003.739-.163.019-.004.74-.16.019-.005.742-.157.019-.004.742-.157.019-.004.742-.156.02-.003.743-.152.02-.004.744-.151.02-.004.745-.148.02-.003.745-.148.019-.004.748-.144.019-.004.747-.143.021-.002.748-.142.019-.004.75-.138.019-.004.75-.136.02-.004.75-.134.02-.004.752-.132.02-.004.753-.13.019-.002.753-.129.019-.004.755-.126.02-.004.755-.125.018-.002.756-.122.02-.004.756-.12.02-.003.758-.119.02-.002.758-.117.02-.003.758-.113.02-.004.758-.112.021-.003.761-.11.02-.003.76-.108.02-.002.762-.107.02-.002.762-.104.02-.003.764-.102.019-.002.765-.1.019-.003.764-.096.021-.004.765-.096.02-.002.766-.094.02-.002.767-.092.021-.002.767-.09.02-.002.77-.086.018-.002.769-.086.02-.002.771-.083.02-.002.77-.082.02-.002.771-.079.021-.001.772-.077.02-.002.772-.075.02-.002.773-.073.02-.002.775-.07h.02l.775-.07.02-.001.776-.068h.019l.776-.065.02-.002.777-.061.02-.002.765-.06 3.76.204z"/></svg>