<svg xmlns="http://www.w3.org/2000/svg" width="426.48" height="425.493"><path style="fill:#000" d="M252.4 571.97 146.161 465.72l106.494-106.497L359.15 252.727l106.746 106.746 106.746 106.745-105.998 106c-58.298 58.301-106.448 106.001-107 106.001-.552 0-48.811-47.812-107.243-106.25zm191.247-147.747-41.99-42-20.758 20.74-20.757 20.739 21.244 21.26 21.244 21.262-42.243 42.251-42.243 42.252 20.748 20.747 20.747 20.747 63-62.999 62.998-63-41.99-41.999zm-106.245-21.245-20.741-20.759-20.76 20.741-20.758 20.742 20.741 20.759 20.741 20.759 20.76-20.742 20.758-20.741-20.741-20.759z" transform="translate(-146.161 -252.727)"/></svg>