<svg xmlns="http://www.w3.org/2000/svg" viewBox="0 0 512 512" xml:space="preserve" style="fill-rule:evenodd;clip-rule:evenodd;stroke-linejoin:round;stroke-miterlimit:1.41421"><path class="cls-1" d="m389.842 79.839 2.368 47.765c38.709 42.787 54.012 103.37 34.739 160.317-28.807 84.998-123.67 129.684-211.945 99.806C126.73 357.85 78.506 264.705 107.26 179.707c19.345-57.135 68.55-96.051 125.542-106.358l30.787-36.387C167.573 34.361 76.913 93.99 44.478 189.79 4.637 307.483 67.749 435.195 185.452 475.038c117.701 39.843 245.405-23.27 285.257-140.963 32.37-95.638-3.232-197.892-80.866-254.236z" style="stroke-width:.90020472"/><path class="cls-1" d="m328.81 209.066-1.63-66.777-1.305-38.42-.9-33.308s.18-16.06-.378-19.805a6.067 6.067 0 0 0-.666-1.998 1.89 1.89 0 0 0-.117-.234 1.584 1.584 0 0 0-.126-.207 5.158 5.158 0 0 0-6.59-2.179h-.072l-.396.207a5.887 5.887 0 0 0-1.647 1.134C312.282 50.18 302.64 63 302.64 63l-20.92 25.907-24.378 29.707-41.86 52.058s-19.21 23.973-14.97 53.482c4.24 29.508 26.187 43.885 43.21 49.646 17.023 5.761 43.21 7.67 64.473-13.197 21.263-20.867 20.615-51.537 20.615-51.537z" style="stroke-width:.90020472"/></svg>