<svg xmlns="http://www.w3.org/2000/svg" width="512" height="512" xml:space="preserve"><path d="M455.686 298.203c-6.254 31.493-54.497 66.112-111.005 72.812-29.26 3.35-58.071 6.7-88.67 5.36-50.254-2.456-89.34-12.06-89.34-12.06v13.848c7.146 49.584 49.583 52.487 90.01 54.05 40.65 1.117 76.832-10.274 76.832-10.274l1.787 36.853s-28.589 15.188-79.29 18.092c-27.918 1.563-62.761-.67-103.188-11.168C65.27 442.264 50.081 348.68 47.848 253.533l-.224-76.61c0-96.934 63.208-125.3 63.208-125.3 32.386-14.74 87.33-21.44 144.508-21.44h1.34c57.178 0 112.123 6.7 144.509 21.44 0 0 63.208 28.366 63.208 125.3 0 0 .893 71.696-8.71 121.28M390.02 184.517c0-24.121-6.7-42.66-18.985-57.177-12.507-14.071-29.035-21.442-49.807-21.442-23.675 0-41.767 9.157-54.051 27.472l-11.168 19.655-11.167-19.655c-12.508-18.315-30.376-27.472-54.274-27.472-20.549 0-37.077 7.37-49.808 21.442-12.283 14.517-18.76 33.056-18.76 57.177V302h46.904V187.868c0-23.675 10.05-36.183 30.375-36.183 22.335 0 33.503 14.518 33.503 43.107v62.314h46.234v-62.314c0-28.59 11.167-43.107 33.726-43.107 20.101 0 30.152 12.508 30.152 36.183V302h47.127z"/></svg>